<svg version="1.1" id="Layer_1" xmlns="http://www.w3.org/2000/svg" xmlns:xlink="http://www.w3.org/1999/xlink" x="0px" y="0px"
	 width="100%" viewBox="0 0 1360 768" enable-background="new 0 0 1360 768" xml:space="preserve">
<path fill="#1F1F1F" opacity="1.000000" stroke="none" 
	d="
M887.000000,769.000000 
	C591.367920,769.000000 296.235870,769.000000 1.051909,769.000000 
	C1.051909,513.064636 1.051909,257.129242 1.051909,1.096930 
	C454.215546,1.096930 907.431152,1.096930 1360.823364,1.096930 
	C1360.823364,256.999908 1360.823364,512.999939 1360.823364,769.000000 
	C1203.128906,769.000000 1045.314453,769.000000 887.000000,769.000000 
M430.178406,22.229683 
	C429.118927,26.437420 427.135681,30.644472 427.132568,34.852989 
	C426.980988,239.495148 426.999969,444.137451 427.000000,648.779724 
	C427.000000,680.442627 426.904602,712.106140 427.106720,743.767761 
	C427.135864,748.332153 427.759705,753.255493 429.569580,757.369934 
	C433.270844,765.784119 441.299591,766.970642 449.381470,766.972534 
	C603.696411,767.009644 758.011353,767.000061 912.326294,766.999329 
	C913.492798,766.999329 914.674561,767.109558 915.823303,766.963867 
	C924.813904,765.823669 932.872742,763.245728 934.231262,750.974670 
	C934.522888,748.340637 934.968018,745.698975 934.968384,743.060730 
	C935.002502,507.088867 935.000122,271.116974 934.997314,35.145100 
	C934.997314,33.479107 935.358948,31.675989 934.848083,30.176685 
	C933.887878,27.358797 932.412659,24.716383 930.949707,21.284115 
	C928.423584,13.421330 925.099731,11.003325 916.661865,11.003048 
	C759.638733,10.997910 602.615540,10.998208 445.592407,11.001990 
	C436.669220,11.002205 433.294403,13.538904 430.178406,22.229683 
z"/>
<path fill="#1D1D1D" opacity="1.000000" stroke="none" 
	d="
M931.151611,22.001011 
	C932.412659,24.716383 933.887878,27.358797 934.848083,30.176685 
	C935.358948,31.675989 934.997314,33.479107 934.997314,35.145100 
	C935.000122,271.116974 935.002502,507.088867 934.968384,743.060730 
	C934.968018,745.698975 934.522888,748.340637 934.231262,750.974670 
	C932.872742,763.245728 924.813904,765.823669 915.823303,766.963867 
	C914.674561,767.109558 913.492798,766.999329 912.326294,766.999329 
	C758.011353,767.000061 603.696411,767.009644 449.381470,766.972534 
	C441.299591,766.970642 433.270844,765.784119 429.569580,757.369934 
	C427.759705,753.255493 427.135864,748.332153 427.106720,743.767761 
	C426.904602,712.106140 427.000000,680.442627 427.000000,648.779724 
	C426.999969,444.137451 426.980988,239.495148 427.132568,34.852989 
	C427.135681,30.644472 429.118927,26.437420 430.573273,22.580589 
	C430.978241,25.097603 430.997223,27.263712 430.997223,29.429819 
	C430.998596,267.047272 430.998169,504.664703 431.003418,742.282166 
	C431.003479,744.613892 430.978577,746.952454 431.138000,749.275940 
	C431.478821,754.242859 435.727142,758.503967 440.660126,758.859253 
	C442.651184,759.002625 444.655792,758.993530 446.654236,758.993591 
	C602.955200,758.999146 759.256104,758.998718 915.557068,758.997864 
	C916.890076,758.997864 918.386719,759.375549 919.522949,758.899231 
	C922.120544,757.810364 924.541870,756.300964 927.007507,754.962585 
	C926.980225,754.962830 926.978821,755.017029 927.322144,754.899902 
	C928.777405,750.946289 930.860046,747.110352 930.862549,743.273193 
	C931.016907,505.345734 931.000977,267.418243 931.007690,29.490738 
	C931.007751,26.994162 931.101562,24.497587 931.151611,22.001011 
z"/>
<path fill="#FE0000" opacity="1.000000" stroke="none" 
	d="
M931.050659,21.642563 
	C931.101562,24.497587 931.007751,26.994162 931.007690,29.490738 
	C931.000977,267.418243 931.016907,505.345734 930.862549,743.273193 
	C930.860046,747.110352 928.777405,750.946289 927.000916,754.598633 
	C927.223938,750.606995 928.886414,746.799927 928.888367,742.991882 
	C929.011414,504.335419 928.999146,265.678894 928.998596,27.022366 
	C928.998596,15.958202 926.089844,13.001837 915.197937,13.001775 
	C759.204590,13.000882 603.211182,13.001021 447.217804,13.001460 
	C435.848969,13.001493 433.001465,15.826097 433.001434,27.106590 
	C433.000946,265.763123 433.000885,504.419647 433.001556,743.076172 
	C433.001587,754.091614 435.903564,756.998474 446.900604,756.998474 
	C594.894348,756.999268 742.888123,757.047607 890.881714,756.908325 
	C902.932251,756.896973 915.159424,758.758728 927.034790,754.962402 
	C924.541870,756.300964 922.120544,757.810364 919.522949,758.899231 
	C918.386719,759.375549 916.890076,758.997864 915.557068,758.997864 
	C759.256104,758.998718 602.955200,758.999146 446.654236,758.993591 
	C444.655792,758.993530 442.651184,759.002625 440.660126,758.859253 
	C435.727142,758.503967 431.478821,754.242859 431.138000,749.275940 
	C430.978577,746.952454 431.003479,744.613892 431.003418,742.282166 
	C430.998169,504.664703 430.998596,267.047272 430.997223,29.429819 
	C430.997223,27.263712 430.978241,25.097603 430.908234,22.466242 
	C433.294403,13.538904 436.669220,11.002205 445.592407,11.001990 
	C602.615540,10.998208 759.638733,10.997910 916.661865,11.003048 
	C925.099731,11.003325 928.423584,13.421330 931.050659,21.642563 
z"/>
<path fill="#2A2A2A" opacity="1.000000" stroke="none" 
	d="
M927.007507,754.962646 
	C915.159424,758.758728 902.932251,756.896973 890.881714,756.908325 
	C742.888123,757.047607 594.894348,756.999268 446.900604,756.998474 
	C435.903564,756.998474 433.001587,754.091614 433.001556,743.076172 
	C433.000885,504.419647 433.000946,265.763123 433.001434,27.106590 
	C433.001465,15.826097 435.848969,13.001493 447.217804,13.001460 
	C603.211182,13.001021 759.204590,13.000882 915.197937,13.001775 
	C926.089844,13.001837 928.998596,15.958202 928.998596,27.022366 
	C928.999146,265.678894 929.011414,504.335419 928.888367,742.991882 
	C928.886414,746.799927 927.223938,750.606995 926.657593,754.715820 
	C926.978821,755.017029 926.980225,754.962830 927.007507,754.962646 
M682.547424,34.614502 
	C681.206543,35.718594 679.865723,36.822689 678.548035,37.907719 
	C677.784973,36.839569 676.944946,35.663635 675.471619,33.601204 
	C676.050476,38.414719 676.477234,41.963245 677.086670,47.030407 
	C679.303223,42.520988 681.156799,38.750011 683.032776,35.814152 
	C683.206604,42.485649 684.502258,43.679859 689.173950,42.316433 
	C689.436646,40.941029 689.611206,39.894203 689.841248,38.859718 
	C690.069641,37.832783 690.887695,36.435108 690.492859,35.884853 
	C689.841553,34.977356 688.451416,34.216198 687.319336,34.134830 
	C685.906494,34.033279 684.439575,34.682915 682.547424,34.614502 
M908.561584,741.702148 
	C910.361389,739.783264 912.161194,737.864380 913.978943,735.019836 
	C913.974670,611.362976 913.970398,487.706146 913.866394,363.364929 
	C911.896057,361.587006 909.925659,359.809082 907.027588,358.014801 
	C756.033508,358.020111 605.039368,358.025421 453.361450,358.131958 
	C451.585693,360.104126 449.809937,362.076294 448.017761,364.975372 
	C448.024689,488.631744 448.031616,612.288147 448.292999,736.572449 
	C450.217865,738.365112 452.142761,740.157776 454.990509,741.970032 
	C605.970581,741.963684 756.950684,741.957397 908.561584,741.702148 
M531.485718,122.001701 
	C509.661346,122.001915 487.836945,121.985306 466.012604,122.013748 
	C460.293274,122.021202 458.041565,123.945717 458.032562,129.145065 
	C457.978485,160.465424 457.999268,191.785934 458.015717,223.106384 
	C458.018066,227.552994 460.292725,229.965485 464.769135,229.970627 
	C490.591766,230.000320 516.414490,230.000839 542.237183,229.968964 
	C546.714478,229.963440 548.978943,227.540375 548.980896,223.095200 
	C548.994629,191.608154 549.002808,160.121109 548.967407,128.634094 
	C548.962646,124.431259 546.687683,122.152374 542.473328,122.029869 
	C539.144104,121.933075 535.809998,122.004814 531.485718,122.001701 
M870.500000,122.003105 
	C854.013733,122.003441 837.527405,121.977776 821.041260,122.017723 
	C814.983704,122.032402 813.023132,124.019440 813.018066,130.146347 
	C812.992676,160.787491 812.990173,191.428680 813.021790,222.069824 
	C813.027832,227.890808 815.045044,229.955795 820.765442,229.964600 
	C845.911133,230.003281 871.056946,230.002747 896.202637,229.963974 
	C901.937378,229.955139 903.964417,227.895477 903.970520,222.093521 
	C904.002808,191.452377 903.999451,160.811188 903.975891,130.170044 
	C903.971130,124.031670 902.017944,122.054482 895.979553,122.016762 
	C887.820007,121.965782 879.659851,122.003464 870.500000,122.003105 
M779.922424,179.486450 
	C779.944641,164.101654 779.014526,148.854599 773.134827,134.363846 
	C769.447510,125.276367 763.761047,117.927536 754.719971,113.557259 
	C728.948730,101.099937 700.999023,113.255058 693.005188,140.589249 
	C687.778931,158.459793 687.573120,176.809433 689.720215,195.070587 
	C690.756042,203.880997 693.153381,212.722229 696.271912,221.048462 
	C700.157715,231.423248 707.762207,238.852478 718.494385,242.596573 
	C742.447021,250.952774 765.055786,240.442368 773.978821,216.765625 
	C778.383667,205.077515 779.586243,192.844620 779.922424,179.486450 
M624.900330,123.302902 
	C610.777405,144.889282 597.179871,166.847458 582.288025,187.889740 
	C575.801575,197.055237 577.611511,206.217163 577.108215,216.213562 
	C597.521851,216.213562 617.257996,216.213562 637.311157,216.213562 
	C637.311157,225.287048 637.311157,233.895615 637.311157,242.751526 
	C645.720642,242.751526 653.805542,242.751526 662.318848,242.751526 
	C662.318848,233.913834 662.318848,225.148987 662.318848,215.800659 
	C668.460327,215.800659 674.188110,215.800659 679.722107,215.800659 
	C679.722107,209.103134 679.722107,203.003418 679.722107,196.328369 
	C673.872986,196.328369 668.295044,196.328369 662.165039,196.328369 
	C662.165039,167.565720 662.165039,139.380035 662.165039,110.993538 
	C656.776733,110.993538 651.861328,111.600784 647.153748,110.869926 
	C636.637024,109.237190 629.213867,112.531288 624.900330,123.302902 
M670.499695,335.573425 
	C683.992615,335.573120 697.486328,335.490875 710.977783,335.631287 
	C714.270325,335.665588 715.935425,334.982025 715.638855,331.247620 
	C715.336487,327.440308 715.411987,323.581512 715.622009,319.761719 
	C715.794373,316.628723 714.928528,315.335938 711.489563,315.359589 
	C691.167908,315.499634 670.844543,315.469788 650.522278,315.381927 
	C647.642761,315.369507 646.196228,316.012909 646.373901,319.250122 
	C646.601807,323.402100 646.600830,327.585388 646.374146,331.737488 
	C646.198242,334.959686 647.610718,335.691284 650.510925,335.619812 
	C656.837036,335.463837 663.169678,335.572754 670.499695,335.573425 
M656.036560,38.468544 
	C657.162231,38.196396 658.545471,38.236519 659.349060,37.573814 
	C660.376587,36.726501 661.804810,34.568840 661.549133,34.270367 
	C660.395325,32.923382 658.823120,31.528679 657.173035,31.151604 
	C656.017029,30.887445 653.446716,32.074745 653.319031,32.895569 
	C652.848450,35.920464 653.132141,39.062710 653.132141,42.160820 
	C653.561096,42.168396 653.990051,42.175972 654.418945,42.183548 
	C654.774353,41.110313 655.129761,40.037079 656.036560,38.468544 
M669.898071,42.875248 
	C671.300171,42.757286 672.702332,42.639324 675.839844,42.375359 
	C673.822021,39.022095 672.429504,36.452080 670.715942,34.117695 
	C670.437378,33.738304 668.737244,34.402393 666.640747,34.767761 
	C668.280273,35.642620 668.943726,35.996647 669.202942,36.134968 
	C668.215698,37.480705 666.883789,38.773869 666.346436,40.339703 
	C666.180115,40.824394 668.174622,42.050594 669.898071,42.875248 
M704.961121,34.880592 
	C704.736755,37.492397 704.512329,40.104202 704.281677,42.789078 
	C705.223267,42.789078 706.959290,42.789078 707.961792,42.789078 
	C707.431396,38.904385 706.924561,35.192123 706.417725,31.479866 
	C705.824219,31.462639 705.230774,31.445410 704.637268,31.428183 
	C704.685547,32.374367 704.733826,33.320549 704.961121,34.880592 
z"/>
<path fill="#3A3A3A" opacity="1.000000" stroke="none" 
	d="
M913.960999,735.945496 
	C912.161194,737.864380 910.361389,739.783264 907.918396,741.589050 
	C905.631653,741.317322 903.988037,741.020020 902.344482,741.019775 
	C754.844543,740.998535 607.344666,740.996399 459.844757,741.039429 
	C457.918976,741.039978 455.993347,741.633667 454.067657,741.950439 
	C452.142761,740.157776 450.217865,738.365112 448.404968,735.929504 
	C448.677856,733.645630 448.979462,732.004639 448.979767,730.363708 
	C449.001740,610.180298 449.004272,489.996857 448.959656,369.813416 
	C448.958954,367.891663 448.356018,365.970123 448.034180,364.048462 
	C449.809937,362.076294 451.585693,360.104126 454.033203,358.321777 
	C456.345947,358.674316 457.986877,358.979309 459.627899,358.979553 
	C607.148499,359.001373 754.669067,359.003448 902.189697,358.959625 
	C904.111633,358.959045 906.033386,358.354065 907.955261,358.031189 
	C909.925659,359.809082 911.896057,361.587006 913.676392,364.036621 
	C913.324219,366.348999 913.020630,367.989655 913.020325,369.630402 
	C912.998169,489.813293 912.995483,609.996155 913.039917,730.179077 
	C913.040649,732.101318 913.640686,734.023376 913.960999,735.945496 
M485.280396,648.693970 
	C485.517212,648.792725 485.754028,648.891479 486.651001,648.785156 
	C487.086334,647.027832 487.521667,645.270569 487.957001,643.513245 
	C488.235077,643.541260 488.513184,643.569275 488.791290,643.597290 
	C489.126190,645.250305 489.461121,646.903259 489.814880,648.649353 
	C491.089478,646.302856 492.198456,644.261230 493.419861,642.012634 
	C491.189392,642.012634 488.590118,642.012634 485.464294,642.468567 
	C485.216370,642.859314 484.968445,643.250000 484.723267,643.563477 
	C484.723267,643.563477 484.755310,643.600159 483.955353,643.336365 
	C481.340576,643.207520 478.722778,642.946655 476.112244,643.005737 
	C474.814697,643.034973 472.774078,643.306580 472.419891,644.083862 
	C471.906342,645.210999 472.615601,646.895447 472.869049,648.849060 
	C474.224182,648.066345 474.949585,647.876465 475.304596,647.406738 
	C478.818207,642.757935 479.257935,642.773682 482.279907,647.468506 
	C482.551758,647.890869 483.679932,647.762085 484.512146,648.028381 
	C484.512146,648.028381 484.594818,648.343872 485.280396,648.693970 
M467.560303,648.228394 
	C468.432007,648.105957 469.303711,647.983521 470.175415,647.861145 
	C470.054474,647.247681 470.010803,646.139099 469.799286,646.106079 
	C468.863678,645.960022 467.879822,646.123291 466.205994,646.508789 
	C464.761627,646.536621 463.140411,646.957703 461.949371,646.422119 
	C461.376068,646.164307 461.136749,643.254333 461.570374,643.010376 
	C463.118988,642.139160 465.020691,641.895691 466.788818,641.414673 
	C464.953125,640.562561 462.140259,639.936646 461.270691,640.960693 
	C460.090454,642.350708 459.528503,645.387268 460.254547,647.031982 
	C461.609344,650.101013 464.479462,649.470215 467.560303,648.228394 
M544.735779,644.091797 
	C544.686523,643.867554 544.637268,643.643250 544.588013,643.419006 
	C544.729858,643.611572 544.871643,643.804199 545.644226,644.498840 
	C545.760376,649.673340 548.969238,649.540894 552.348328,648.681702 
	C552.203552,646.687622 552.064087,644.766602 551.844666,641.743591 
	C550.016357,642.378052 548.135681,643.030640 545.901062,644.133667 
	C545.794861,644.292419 545.688721,644.451111 545.077209,644.515259 
	C545.051514,644.345764 545.025757,644.176331 544.735779,644.091797 
M466.274109,707.905151 
	C460.294525,706.568298 463.592468,714.125366 459.733276,715.251160 
	C462.074585,714.843140 464.415863,714.435059 467.023315,714.716736 
	C468.403229,714.869873 469.783142,715.022949 471.163055,715.176025 
	C471.401184,712.983215 471.895142,710.760620 471.646149,708.624634 
	C471.600250,708.230957 468.546265,708.187927 466.274109,707.905151 
M528.107117,549.067871 
	C528.296631,549.252319 528.486206,549.436768 528.507202,550.301697 
	C528.915283,555.626343 532.866699,551.555664 535.067444,553.407898 
	C532.654602,545.379761 532.600891,545.391479 527.807800,546.332214 
	C526.187744,546.650146 524.441040,549.520874 522.741333,546.345215 
	C522.726685,546.317688 521.464722,546.694153 521.225037,547.126221 
	C520.992188,547.545837 521.227905,548.315857 521.428894,548.869995 
	C522.238220,551.101501 523.113831,553.308838 524.098755,555.873657 
	C525.169861,553.605042 526.385071,551.031250 528.107117,549.067871 
M465.840454,521.892456 
	C465.979523,522.036438 466.118622,522.180359 466.648865,522.854248 
	C468.175018,522.864136 470.951111,523.159729 471.024719,522.837585 
	C471.506317,520.730652 471.648743,518.446716 471.276306,516.330750 
	C471.204895,515.925110 468.330536,515.761658 466.795166,515.922974 
	C464.414795,516.173035 462.073883,516.798340 458.529907,517.499146 
	C461.249878,519.057983 463.340149,520.255859 465.840454,521.892456 
M543.500000,395.001740 
	C660.785400,395.001740 778.070801,395.001801 895.356201,395.001251 
	C896.855591,395.001251 898.356201,395.031799 899.854065,394.982361 
	C903.903564,394.848724 905.936890,392.698761 905.984985,388.679718 
	C906.022888,385.514801 906.002380,382.349091 906.001587,379.183746 
	C905.999084,369.685242 905.307434,368.998718 895.721252,368.998657 
	C754.612183,368.998108 613.503113,368.998260 472.394073,368.998657 
	C471.061279,368.998657 469.728333,368.991394 468.395752,369.009552 
	C464.085754,369.068268 462.006958,371.309601 462.004913,375.569946 
	C462.003113,379.235107 461.986420,382.900330 462.001526,386.565430 
	C462.030518,393.612488 463.407471,394.993073 470.529388,394.996826 
	C494.519592,395.009430 518.509827,395.001709 543.500000,395.001740 
M713.503052,545.000000 
	C709.178223,545.000732 704.851929,545.073853 700.529053,544.982483 
	C695.874451,544.884155 693.862793,547.125488 693.978210,551.694946 
	C694.087402,556.016968 694.048279,560.344543 693.990112,564.668518 
	C693.931152,569.047485 696.043396,571.019958 700.392639,571.014893 
	C729.501892,570.981079 758.611206,570.983948 787.720459,571.010925 
	C792.123596,571.015015 794.088196,568.880981 794.012573,564.555420 
	C793.942749,560.564514 794.018677,556.571289 793.995300,552.579285 
	C793.958557,546.320984 792.664612,545.011414 786.360291,545.006958 
	C762.407532,544.989990 738.454712,545.000061 713.503052,545.000000 
M884.479248,571.000000 
	C887.642029,570.996155 890.804932,571.005615 893.967651,570.985168 
	C897.780518,570.960510 899.917664,569.105408 899.966064,565.217834 
	C900.026184,560.391296 900.032166,555.562683 899.962219,550.736450 
	C899.905701,546.837280 897.722534,545.014893 893.921875,545.014160 
	C864.624451,545.008606 835.326965,545.006042 806.029541,545.017395 
	C801.890747,545.018982 799.984497,547.227966 800.004333,551.283997 
	C800.023071,555.112549 799.987244,558.941345 800.003845,562.769897 
	C800.033997,569.732849 801.236877,570.987854 808.078491,570.992615 
	C833.214355,571.010193 858.350281,570.999878 884.479248,571.000000 
M717.500244,497.000000 
	C711.844727,497.000702 706.188110,497.073212 700.534119,496.979736 
	C695.882141,496.902863 693.863281,499.117493 693.978271,503.689697 
	C694.086975,508.011749 694.048767,512.339294 693.989990,516.663269 
	C693.930420,521.039673 696.035583,523.019775 700.387329,523.014709 
	C729.496521,522.981140 758.605652,522.983765 787.714844,523.011108 
	C792.115173,523.015259 794.087524,520.889343 794.012390,516.561035 
	C793.943054,512.570129 794.018494,508.576935 793.995239,504.584991 
	C793.958801,498.322052 792.666321,497.011993 786.366089,497.007111 
	C763.744080,496.989502 741.122131,497.000061 717.500244,497.000000 
M863.500000,475.000000 
	C873.487488,474.997894 883.475098,474.963501 893.462402,475.008789 
	C897.750854,475.028229 900.017456,473.126648 899.995850,468.724854 
	C899.973755,464.230621 899.979797,459.736176 899.993896,455.241852 
	C900.006653,451.171631 898.054565,449.015839 893.928589,449.014862 
	C864.632019,449.007812 835.335388,449.006500 806.038818,449.016876 
	C801.903015,449.018341 799.986328,451.215424 800.004639,455.274475 
	C800.021973,459.102905 799.987366,462.931580 800.003784,466.760040 
	C800.033691,473.732635 801.232910,474.984528 808.068237,474.992340 
	C826.212158,475.013153 844.356079,474.999756 863.500000,475.000000 
M712.505249,449.000000 
	C708.513123,449.000702 704.519287,449.073273 700.529236,448.983368 
	C695.874756,448.878479 693.862854,451.125153 693.978210,455.694702 
	C694.087341,460.016785 694.048279,464.344360 693.990112,468.668396 
	C693.931213,473.047302 696.043152,475.019958 700.392517,475.014893 
	C729.501892,474.980988 758.611328,474.983948 787.720703,475.010925 
	C792.124023,475.015015 794.088379,472.880554 794.012634,468.555115 
	C793.942810,464.564209 794.018738,460.570984 793.995300,456.578979 
	C793.958557,450.321167 792.664368,449.011444 786.359985,449.007050 
	C762.074402,448.990173 737.788879,449.000061 712.505249,449.000000 
M739.500000,427.000000 
	C755.302124,426.999756 771.104309,427.023163 786.906372,426.986664 
	C792.528442,426.973663 793.937134,425.518341 793.990906,419.872681 
	C794.032043,415.548340 794.005920,411.223175 793.991760,406.898438 
	C793.979065,403.043030 792.050171,401.015076 788.172607,401.013458 
	C758.730774,401.001251 729.288940,401.001801 699.847107,401.012177 
	C695.975769,401.013550 694.025085,403.017181 694.009399,406.878723 
	C693.991821,411.203430 693.968933,415.528595 694.008972,419.852966 
	C694.061340,425.506256 695.471619,426.967987 701.073975,426.986481 
	C713.549133,427.027710 726.024658,426.999756 739.500000,427.000000 
M855.500000,426.999664 
	C867.984253,426.998810 880.468689,427.036865 892.952698,426.978912 
	C898.336853,426.953888 899.878052,425.438599 899.978271,420.235138 
	C900.061584,415.908936 899.979492,411.579712 899.994080,407.251892 
	C900.007812,403.185089 898.067322,401.016876 893.938171,401.015747 
	C864.641846,401.007782 835.345520,401.007294 806.049194,401.016571 
	C801.916260,401.017853 799.988647,403.202057 800.005432,407.264557 
	C800.021240,411.092957 799.987671,414.921570 800.004089,418.750000 
	C800.033997,425.732910 801.229370,426.982147 808.058594,426.992004 
	C823.539062,427.014404 839.019531,426.999451 855.500000,426.999664 
M839.500000,641.000000 
	C828.513733,641.002075 817.527405,641.034729 806.541321,640.990967 
	C802.254456,640.973877 799.983337,642.868164 800.004333,647.271362 
	C800.025757,651.765625 800.020508,656.260132 800.005920,660.754395 
	C799.992737,664.823181 801.940308,666.983887 806.067627,666.984924 
	C835.364258,666.992310 864.660828,666.993347 893.957458,666.983337 
	C898.092285,666.981934 900.012939,664.789551 899.995239,660.729309 
	C899.978516,656.900818 900.012512,653.072205 899.996155,649.243713 
	C899.966370,642.267395 898.768372,641.015930 891.935547,641.007446 
	C874.790344,640.986084 857.645203,641.000183 839.500000,641.000000 
M857.500000,593.000000 
	C841.020752,593.000244 824.541504,592.985779 808.062256,593.007874 
	C801.230225,593.017029 800.034180,594.266907 800.004150,601.246277 
	C799.987671,605.074707 800.021667,608.903320 800.005249,612.731750 
	C799.987793,616.793030 801.911316,618.981873 806.045410,618.983215 
	C835.341797,618.992859 864.638123,618.992004 893.934509,618.984375 
	C898.062561,618.983276 900.008728,616.820007 899.993896,612.751831 
	C899.980591,609.089844 900.005798,605.427795 899.997742,601.765747 
	C899.980835,594.087341 898.946777,593.014526 891.458496,593.004333 
	C880.472351,592.989319 869.486145,593.000183 857.500000,593.000000 
M846.500000,497.000336 
	C833.349915,497.001190 820.199585,496.964508 807.049744,497.021088 
	C801.664062,497.044281 800.122131,498.560455 800.021729,503.762390 
	C799.938232,508.088593 800.020874,512.417847 800.005859,516.745605 
	C799.991699,520.811584 801.929321,522.982910 806.059265,522.984070 
	C835.355652,522.992310 864.651978,522.992615 893.948364,522.983643 
	C898.080566,522.982361 900.011414,520.801331 899.994385,516.738037 
	C899.979065,513.076050 900.005981,509.413940 899.997803,505.751923 
	C899.980591,498.089844 898.939758,497.011536 891.444580,497.004700 
	C876.796387,496.991302 862.148193,497.000488 846.500000,497.000336 
M891.273193,715.998474 
	C899.011963,715.906616 899.975647,714.964172 899.996033,707.415222 
	C900.006775,703.419495 899.959473,699.423462 900.000671,695.428223 
	C900.045349,691.089722 897.966858,688.995972 893.611816,688.998962 
	C864.476379,689.018921 835.340942,689.012268 806.205505,689.008545 
	C802.121033,689.007996 800.022217,690.996948 800.013123,695.111328 
	C800.003906,699.273499 799.990967,703.435791 800.004822,707.597900 
	C800.029053,714.868591 801.132751,715.990234 808.409912,715.993469 
	C835.713989,716.005554 863.018066,715.998596 891.273193,715.998474 
M470.655487,455.062683 
	C472.233643,455.503723 473.835541,455.874512 475.385925,456.397858 
	C482.436859,458.778290 484.813477,456.913605 484.125183,450.278381 
	C480.637177,449.923218 475.528168,448.101837 474.319214,449.545837 
	C471.653137,452.730042 469.016998,452.502411 465.539703,452.318787 
	C465.795990,453.457275 466.031738,454.504517 466.173676,455.135040 
	C467.729034,454.954773 468.880707,454.821289 470.655487,455.062683 
M473.867645,593.807495 
	C471.450653,594.959778 469.033630,596.112061 465.872162,597.619202 
	C465.820587,597.331970 466.031158,598.504456 466.264191,599.802063 
	C469.994385,596.984131 472.826416,599.734558 475.738464,600.591980 
	C482.778870,602.665039 485.252136,600.543091 483.968781,594.306824 
	C480.374054,593.998230 477.047058,593.712646 473.867645,593.807495 
M468.149139,502.203949 
	C470.634949,502.961334 473.078491,503.929565 475.614227,504.437836 
	C484.297302,506.178406 485.806946,504.243835 484.141968,498.387634 
	C477.584076,496.349548 472.084656,500.257355 464.586945,500.779785 
	C466.140137,501.699371 466.930145,502.167114 468.149139,502.203949 
M483.983154,545.442444 
	C477.863831,545.382812 472.059875,547.458069 465.728119,548.862854 
	C465.820770,549.352722 466.043274,550.528992 466.265778,551.705200 
	C466.528809,551.207520 466.791840,550.709839 467.054871,550.212158 
	C469.827209,550.934204 472.646393,551.513733 475.362732,552.406250 
	C482.189697,554.649475 484.504364,553.030090 483.983154,545.442444 
M513.911255,456.010010 
	C516.417175,455.569946 517.820068,453.932556 515.655396,452.192261 
	C514.008972,450.868591 511.215942,450.820129 508.892517,450.534821 
	C506.826233,450.281097 504.704193,450.481598 502.760284,450.481598 
	C500.539520,451.590546 498.035492,452.840942 496.481171,453.617126 
	C497.340179,453.857544 499.302155,454.616852 501.332916,454.930359 
	C505.293701,455.541840 509.292969,455.903931 513.911255,456.010010 
M507.745789,598.147644 
	C509.665771,601.345886 511.906281,601.858337 515.144104,599.652771 
	C516.693359,598.597473 518.945312,598.573853 520.865479,598.086365 
	C520.865479,597.018250 520.865479,595.273865 520.865479,594.781128 
	C518.493347,594.962341 515.969116,595.958740 514.580627,595.106018 
	C510.862946,592.822815 509.118286,594.327637 507.745789,598.147644 
M546.311890,600.453613 
	C548.176819,600.626465 550.041748,600.799316 551.039917,600.891846 
	C551.795532,598.786499 552.279053,597.439331 552.835083,595.890015 
	C552.350281,595.102905 551.516602,593.749390 550.696777,592.396912 
	C547.866638,594.078430 543.487000,594.750793 546.311890,600.453613 
M537.007690,596.877136 
	C535.571228,597.536804 534.134827,598.196411 532.698364,598.856018 
	C532.725769,599.299316 532.753113,599.742554 532.780457,600.185852 
	C535.526062,600.348694 538.356628,600.951599 540.973389,600.446716 
	C541.949280,600.258362 542.425903,597.482605 543.130188,595.886780 
	C542.706909,595.747925 542.283630,595.609070 541.860413,595.470154 
	C541.602844,596.707825 541.345276,597.945435 540.918396,599.996582 
	C539.359863,593.210083 538.670105,592.765503 535.505249,595.336975 
	C536.146484,595.738098 536.887390,596.201599 537.007690,596.877136 
M488.953125,499.609955 
	C488.953125,501.346527 488.953125,503.083099 488.953125,505.723511 
	C492.946655,504.645264 495.957214,503.832397 499.759583,502.805756 
	C497.866791,500.559753 496.408691,497.920654 494.177490,496.473175 
	C492.432678,495.341217 489.145905,494.397949 488.953125,499.609955 
M472.082886,406.696350 
	C471.359802,401.391968 470.740845,400.980927 466.500641,403.682922 
	C467.931061,403.682922 468.833527,403.682922 469.375183,403.682922 
	C468.333984,405.091705 467.334229,406.444427 466.334442,407.797119 
	C468.982361,408.218353 471.630280,408.639618 474.378967,409.076904 
	C474.378967,406.324219 474.378967,404.695068 474.378967,403.065948 
	C474.182251,403.056061 473.985535,403.046173 473.788818,403.036285 
	C473.322784,404.459259 472.856750,405.882233 472.082886,406.696350 
M507.529999,546.448486 
	C506.050049,546.448486 504.570129,546.448486 503.090179,546.448486 
	C503.122162,546.805603 503.154114,547.162720 503.186096,547.519836 
	C504.088043,547.570312 504.989990,547.620789 505.841278,547.668457 
	C504.576080,549.130615 503.525513,550.344727 502.474945,551.558838 
	C504.370941,552.149841 506.266907,552.740906 508.365601,553.395081 
	C508.227997,550.470398 508.137299,548.542114 507.529999,546.448486 
M491.805878,593.287659 
	C492.924835,593.105713 494.043793,592.923767 495.162720,592.741821 
	C495.122070,592.560303 495.081421,592.378784 495.040771,592.197266 
	C493.162109,592.197266 491.283417,592.197266 489.302185,592.197266 
	C489.302185,595.275208 489.302185,597.990417 489.302185,601.213440 
	C492.173157,601.048340 494.666931,600.904968 498.320465,600.694824 
	C495.019379,600.017700 492.931824,599.589539 490.844269,599.161316 
	C490.829193,598.776062 490.814087,598.390747 490.799011,598.005493 
	C492.163544,597.515808 493.528076,597.026184 494.276642,596.757507 
	C493.219543,595.720764 492.192902,594.713806 491.805878,593.287659 
M535.528564,640.877686 
	C535.528564,643.413696 535.528564,645.949646 535.528564,648.572693 
	C537.287415,648.220276 539.128357,647.851379 542.716431,647.132446 
	C539.983704,644.494629 538.024658,642.603638 535.528564,640.877686 
M492.366913,405.888855 
	C486.429688,402.007874 486.429688,402.007874 483.330841,403.977661 
	C487.299652,405.812622 490.952362,407.501434 494.605072,409.190247 
	C494.816772,408.762115 495.028503,408.333954 495.240234,407.905823 
	C494.457916,407.366486 493.675598,406.827148 492.366913,405.888855 
M478.325836,403.166718 
	C477.956543,405.592987 477.349304,408.142853 481.770813,408.818268 
	C481.519653,406.034912 483.761658,402.933838 478.325836,403.166718 
M532.788330,642.306152 
	C532.166809,641.878784 531.545288,641.451416 530.923706,641.024048 
	C530.636414,643.025208 530.248535,645.021301 530.147583,647.031860 
	C530.127747,647.428040 531.214355,647.879822 531.790649,648.305969 
	C532.196716,646.872192 532.620728,645.443054 532.994324,644.000854 
	C533.072876,643.697754 532.966492,643.346619 532.788330,642.306152 
M540.780945,549.489990 
	C540.732849,548.943909 540.684814,548.397827 540.636780,547.851685 
	C540.488647,547.862183 540.340515,547.872681 540.192383,547.883240 
	C540.263855,548.932251 540.335266,549.981262 540.406677,551.030273 
	C540.535278,550.875610 540.698242,550.737061 540.781067,550.560852 
	C540.841370,550.432434 540.795959,550.254395 540.780945,549.489990 
M510.131378,646.749756 
	C510.302032,646.824341 510.472656,646.898926 510.643311,646.973572 
	C510.690765,646.824951 510.777222,646.676880 510.779297,646.527649 
	C510.792023,645.612549 510.785706,644.697205 510.785706,643.781982 
	C510.555054,643.782349 510.324402,643.782715 510.093750,643.783081 
	C510.093750,644.563782 510.093750,645.344421 510.131378,646.749756 
z"/>
<path fill="#FF000D" opacity="1.000000" stroke="none" 
	d="
M531.981873,122.001709 
	C535.809998,122.004814 539.144104,121.933075 542.473328,122.029869 
	C546.687683,122.152374 548.962646,124.431259 548.967407,128.634094 
	C549.002808,160.121109 548.994629,191.608154 548.980896,223.095200 
	C548.978943,227.540375 546.714478,229.963440 542.237183,229.968964 
	C516.414490,230.000839 490.591766,230.000320 464.769135,229.970627 
	C460.292725,229.965485 458.018066,227.552994 458.015717,223.106384 
	C457.999268,191.785934 457.978485,160.465424 458.032562,129.145065 
	C458.041565,123.945717 460.293274,122.021202 466.012604,122.013748 
	C487.836945,121.985306 509.661346,122.001915 531.981873,122.001709 
z"/>
<path fill="#0066CC" opacity="1.000000" stroke="none" 
	d="
M871.000000,122.003105 
	C879.659851,122.003464 887.820007,121.965782 895.979553,122.016762 
	C902.017944,122.054482 903.971130,124.031670 903.975891,130.170044 
	C903.999451,160.811188 904.002808,191.452377 903.970520,222.093521 
	C903.964417,227.895477 901.937378,229.955139 896.202637,229.963974 
	C871.056946,230.002747 845.911133,230.003281 820.765442,229.964600 
	C815.045044,229.955795 813.027832,227.890808 813.021790,222.069824 
	C812.990173,191.428680 812.992676,160.787491 813.018066,130.146347 
	C813.023132,124.019440 814.983704,122.032402 821.041260,122.017723 
	C837.527405,121.977776 854.013733,122.003441 871.000000,122.003105 
M861.770447,178.488510 
	C862.437622,177.990112 863.104797,177.491714 863.132507,177.471024 
	C861.394836,175.397858 859.969543,173.697418 858.585571,172.046280 
	C857.020630,173.778198 855.416687,175.553207 853.961426,177.163696 
	C855.549561,179.085587 857.237183,181.127930 859.061279,183.335419 
	C859.831909,181.453613 860.412537,180.035797 861.770447,178.488510 
z"/>
<path fill="#EDEEED" opacity="1.000000" stroke="none" 
	d="
M779.918274,179.982635 
	C779.586243,192.844620 778.383667,205.077515 773.978821,216.765625 
	C765.055786,240.442368 742.447021,250.952774 718.494385,242.596573 
	C707.762207,238.852478 700.157715,231.423248 696.271912,221.048462 
	C693.153381,212.722229 690.756042,203.880997 689.720215,195.070587 
	C687.573120,176.809433 687.778931,158.459793 693.005188,140.589249 
	C700.999023,113.255058 728.948730,101.099937 754.719971,113.557259 
	C763.761047,117.927536 769.447510,125.276367 773.134827,134.363846 
	C779.014526,148.854599 779.944641,164.101654 779.918274,179.982635 
M718.101318,211.170074 
	C718.430054,212.111633 718.716675,213.070450 719.094238,213.992035 
	C722.083252,221.288437 726.295410,224.186646 733.933594,224.230362 
	C741.533447,224.273865 746.026428,221.364471 748.960510,214.241669 
	C749.903442,211.952484 750.658081,209.534088 751.109863,207.102524 
	C754.359619,189.610550 753.918701,171.991776 752.313721,154.404922 
	C751.836670,149.178314 750.458069,143.919830 748.706238,138.953308 
	C746.622375,133.045319 741.804382,130.272064 735.549622,130.019180 
	C725.516479,129.613525 719.552551,134.017944 717.517273,145.428345 
	C713.663208,167.035858 713.594116,188.758514 718.101318,211.170074 
z"/>
<path fill="#ECEEEE" opacity="1.000000" stroke="none" 
	d="
M625.083984,122.992088 
	C629.213867,112.531288 636.637024,109.237190 647.153748,110.869926 
	C651.861328,111.600784 656.776733,110.993538 662.165039,110.993538 
	C662.165039,139.380035 662.165039,167.565720 662.165039,196.328369 
	C668.295044,196.328369 673.872986,196.328369 679.722107,196.328369 
	C679.722107,203.003418 679.722107,209.103134 679.722107,215.800659 
	C674.188110,215.800659 668.460327,215.800659 662.318848,215.800659 
	C662.318848,225.148987 662.318848,233.913834 662.318848,242.751526 
	C653.805542,242.751526 645.720642,242.751526 637.311157,242.751526 
	C637.311157,233.895615 637.311157,225.287048 637.311157,216.213562 
	C617.257996,216.213562 597.521851,216.213562 577.108215,216.213562 
	C577.611511,206.217163 575.801575,197.055237 582.288025,187.889740 
	C597.179871,166.847458 610.777405,144.889282 625.083984,122.992088 
M636.283081,138.356339 
	C624.007935,157.482727 611.732849,176.609116 599.202026,196.133911 
	C612.033569,196.133911 624.387817,196.133911 637.846924,196.133911 
	C637.846924,176.576736 637.847900,157.309769 637.799194,138.042923 
	C637.799072,137.987335 637.073914,137.933578 636.283081,138.356339 
z"/>
<path fill="#EDEEF0" opacity="1.000000" stroke="none" 
	d="
M669.999695,335.573425 
	C663.169678,335.572754 656.837036,335.463837 650.510925,335.619812 
	C647.610718,335.691284 646.198242,334.959686 646.374146,331.737488 
	C646.600830,327.585388 646.601807,323.402100 646.373901,319.250122 
	C646.196228,316.012909 647.642761,315.369507 650.522278,315.381927 
	C670.844543,315.469788 691.167908,315.499634 711.489563,315.359589 
	C714.928528,315.335938 715.794373,316.628723 715.622009,319.761719 
	C715.411987,323.581512 715.336487,327.440308 715.638855,331.247620 
	C715.935425,334.982025 714.270325,335.665588 710.977783,335.631287 
	C697.486328,335.490875 683.992615,335.573120 669.999695,335.573425 
z"/>
<path fill="#444444" opacity="1.000000" stroke="none" 
	d="
M454.529083,741.960205 
	C455.993347,741.633667 457.918976,741.039978 459.844757,741.039429 
	C607.344666,740.996399 754.844543,740.998535 902.344482,741.019775 
	C903.988037,741.020020 905.631653,741.317322 907.603027,741.713501 
	C756.950684,741.957397 605.970581,741.963684 454.529083,741.960205 
z"/>
<path fill="#444444" opacity="1.000000" stroke="none" 
	d="
M907.491455,358.023010 
	C906.033386,358.354065 904.111633,358.959045 902.189697,358.959625 
	C754.669067,359.003448 607.148499,359.001373 459.627899,358.979553 
	C457.986877,358.979309 456.345947,358.674316 454.375122,358.271179 
	C605.039368,358.025421 756.033508,358.020111 907.491455,358.023010 
z"/>
<path fill="#444444" opacity="1.000000" stroke="none" 
	d="
M913.969971,735.482666 
	C913.640686,734.023376 913.040649,732.101318 913.039917,730.179077 
	C912.995483,609.996155 912.998169,489.813293 913.020325,369.630402 
	C913.020630,367.989655 913.324219,366.348999 913.726196,364.378784 
	C913.970398,487.706146 913.974670,611.362976 913.969971,735.482666 
z"/>
<path fill="#444444" opacity="1.000000" stroke="none" 
	d="
M448.025940,364.511902 
	C448.356018,365.970123 448.958954,367.891663 448.959656,369.813416 
	C449.004272,489.996857 449.001740,610.180298 448.979767,730.363708 
	C448.979462,732.004639 448.677856,733.645630 448.277710,735.615540 
	C448.031616,612.288147 448.024689,488.631744 448.025940,364.511902 
z"/>
<path fill="#0F0F0F" opacity="1.000000" stroke="none" 
	d="
M655.760864,38.716194 
	C655.129761,40.037079 654.774353,41.110313 654.418945,42.183548 
	C653.990051,42.175972 653.561096,42.168396 653.132141,42.160820 
	C653.132141,39.062710 652.848450,35.920464 653.319031,32.895569 
	C653.446716,32.074745 656.017029,30.887445 657.173035,31.151604 
	C658.823120,31.528679 660.395325,32.923382 661.549133,34.270367 
	C661.804810,34.568840 660.376587,36.726501 659.349060,37.573814 
	C658.545471,38.236519 657.162231,38.196396 655.760864,38.716194 
z"/>
<path fill="#0F0F0F" opacity="1.000000" stroke="none" 
	d="
M669.538940,42.906273 
	C668.174622,42.050594 666.180115,40.824394 666.346436,40.339703 
	C666.883789,38.773869 668.215698,37.480705 669.202942,36.134968 
	C668.943726,35.996647 668.280273,35.642620 666.640747,34.767761 
	C668.737244,34.402393 670.437378,33.738304 670.715942,34.117695 
	C672.429504,36.452080 673.822021,39.022095 675.839844,42.375359 
	C672.702332,42.639324 671.300171,42.757286 669.538940,42.906273 
z"/>
<path fill="#0F0F0F" opacity="1.000000" stroke="none" 
	d="
M682.996033,35.008224 
	C684.439575,34.682915 685.906494,34.033279 687.319336,34.134830 
	C688.451416,34.216198 689.841553,34.977356 690.492859,35.884853 
	C690.887695,36.435108 690.069641,37.832783 689.841248,38.859718 
	C689.611206,39.894203 689.436646,40.941029 689.173950,42.316433 
	C684.502258,43.679859 683.206604,42.485649 683.017639,35.404945 
	C683.002502,34.995735 682.996033,35.008228 682.996033,35.008224 
z"/>
<path fill="#0F0F0F" opacity="1.000000" stroke="none" 
	d="
M683.006470,34.987381 
	C681.156799,38.750011 679.303223,42.520988 677.086670,47.030407 
	C676.477234,41.963245 676.050476,38.414719 675.471619,33.601204 
	C676.944946,35.663635 677.784973,36.839569 678.548035,37.907719 
	C679.865723,36.822689 681.206543,35.718594 682.771729,34.811363 
	C682.996033,35.008228 683.002502,34.995735 683.006470,34.987381 
z"/>
<path fill="#0F0F0F" opacity="1.000000" stroke="none" 
	d="
M704.871582,34.573662 
	C704.733826,33.320549 704.685547,32.374367 704.637268,31.428183 
	C705.230774,31.445410 705.824219,31.462639 706.417725,31.479866 
	C706.924561,35.192123 707.431396,38.904385 707.961792,42.789078 
	C706.959290,42.789078 705.223267,42.789078 704.281677,42.789078 
	C704.512329,40.104202 704.736755,37.492397 704.871582,34.573662 
z"/>
<path fill="#0F0F0F" opacity="1.000000" stroke="none" 
	d="
M543.000000,395.001770 
	C518.509827,395.001709 494.519592,395.009430 470.529388,394.996826 
	C463.407471,394.993073 462.030518,393.612488 462.001526,386.565430 
	C461.986420,382.900330 462.003113,379.235107 462.004913,375.569946 
	C462.006958,371.309601 464.085754,369.068268 468.395752,369.009552 
	C469.728333,368.991394 471.061279,368.998657 472.394073,368.998657 
	C613.503113,368.998260 754.612183,368.998108 895.721252,368.998657 
	C905.307434,368.998718 905.999084,369.685242 906.001587,379.183746 
	C906.002380,382.349091 906.022888,385.514801 905.984985,388.679718 
	C905.936890,392.698761 903.903564,394.848724 899.854065,394.982361 
	C898.356201,395.031799 896.855591,395.001251 895.356201,395.001251 
	C778.070801,395.001801 660.785400,395.001740 543.000000,395.001770 
z"/>
<path fill="#FF000D" opacity="1.000000" stroke="none" 
	d="
M714.002502,545.000000 
	C738.454712,545.000061 762.407532,544.989990 786.360291,545.006958 
	C792.664612,545.011414 793.958557,546.320984 793.995300,552.579285 
	C794.018677,556.571289 793.942749,560.564514 794.012573,564.555420 
	C794.088196,568.880981 792.123596,571.015015 787.720459,571.010925 
	C758.611206,570.983948 729.501892,570.981079 700.392639,571.014893 
	C696.043396,571.019958 693.931152,569.047485 693.990112,564.668518 
	C694.048279,560.344543 694.087402,556.016968 693.978210,551.694946 
	C693.862793,547.125488 695.874451,544.884155 700.529053,544.982483 
	C704.851929,545.073853 709.178223,545.000732 714.002502,545.000000 
z"/>
<path fill="#28A745" opacity="1.000000" stroke="none" 
	d="
M883.982666,571.000000 
	C858.350281,570.999878 833.214355,571.010193 808.078491,570.992615 
	C801.236877,570.987854 800.033997,569.732849 800.003845,562.769897 
	C799.987244,558.941345 800.023071,555.112549 800.004333,551.283997 
	C799.984497,547.227966 801.890747,545.018982 806.029541,545.017395 
	C835.326965,545.006042 864.624451,545.008606 893.921875,545.014160 
	C897.722534,545.014893 899.905701,546.837280 899.962219,550.736450 
	C900.032166,555.562683 900.026184,560.391296 899.966064,565.217834 
	C899.917664,569.105408 897.780518,570.960510 893.967651,570.985168 
	C890.804932,571.005615 887.642029,570.996155 883.982666,571.000000 
z"/>
<path fill="#FF000D" opacity="1.000000" stroke="none" 
	d="
M718.000183,497.000000 
	C741.122131,497.000061 763.744080,496.989502 786.366089,497.007111 
	C792.666321,497.011993 793.958801,498.322052 793.995239,504.584991 
	C794.018494,508.576935 793.943054,512.570129 794.012390,516.561035 
	C794.087524,520.889343 792.115173,523.015259 787.714844,523.011108 
	C758.605652,522.983765 729.496521,522.981140 700.387329,523.014709 
	C696.035583,523.019775 693.930420,521.039673 693.989990,516.663269 
	C694.048767,512.339294 694.086975,508.011749 693.978271,503.689697 
	C693.863281,499.117493 695.882141,496.902863 700.534119,496.979736 
	C706.188110,497.073212 711.844727,497.000702 718.000183,497.000000 
z"/>
<path fill="#28A745" opacity="1.000000" stroke="none" 
	d="
M863.000000,475.000000 
	C844.356079,474.999756 826.212158,475.013153 808.068237,474.992340 
	C801.232910,474.984528 800.033691,473.732635 800.003784,466.760040 
	C799.987366,462.931580 800.021973,459.102905 800.004639,455.274475 
	C799.986328,451.215424 801.903015,449.018341 806.038818,449.016876 
	C835.335388,449.006500 864.632019,449.007812 893.928589,449.014862 
	C898.054565,449.015839 900.006653,451.171631 899.993896,455.241852 
	C899.979797,459.736176 899.973755,464.230621 899.995850,468.724854 
	C900.017456,473.126648 897.750854,475.028229 893.462402,475.008789 
	C883.475098,474.963501 873.487488,474.997894 863.000000,475.000000 
z"/>
<path fill="#FF000D" opacity="1.000000" stroke="none" 
	d="
M713.004272,449.000000 
	C737.788879,449.000061 762.074402,448.990173 786.359985,449.007050 
	C792.664368,449.011444 793.958557,450.321167 793.995300,456.578979 
	C794.018738,460.570984 793.942810,464.564209 794.012634,468.555115 
	C794.088379,472.880554 792.124023,475.015015 787.720703,475.010925 
	C758.611328,474.983948 729.501892,474.980988 700.392517,475.014893 
	C696.043152,475.019958 693.931213,473.047302 693.990112,468.668396 
	C694.048279,464.344360 694.087341,460.016785 693.978210,455.694702 
	C693.862854,451.125153 695.874756,448.878479 700.529236,448.983368 
	C704.519287,449.073273 708.513123,449.000702 713.004272,449.000000 
z"/>
<path fill="#FF000D" opacity="1.000000" stroke="none" 
	d="
M739.000000,427.000000 
	C726.024658,426.999756 713.549133,427.027710 701.073975,426.986481 
	C695.471619,426.967987 694.061340,425.506256 694.008972,419.852966 
	C693.968933,415.528595 693.991821,411.203430 694.009399,406.878723 
	C694.025085,403.017181 695.975769,401.013550 699.847107,401.012177 
	C729.288940,401.001801 758.730774,401.001251 788.172607,401.013458 
	C792.050171,401.015076 793.979065,403.043030 793.991760,406.898438 
	C794.005920,411.223175 794.032043,415.548340 793.990906,419.872681 
	C793.937134,425.518341 792.528442,426.973663 786.906372,426.986664 
	C771.104309,427.023163 755.302124,426.999756 739.000000,427.000000 
z"/>
<path fill="#28A745" opacity="1.000000" stroke="none" 
	d="
M855.000000,426.999664 
	C839.019531,426.999451 823.539062,427.014404 808.058594,426.992004 
	C801.229370,426.982147 800.033997,425.732910 800.004089,418.750000 
	C799.987671,414.921570 800.021240,411.092957 800.005432,407.264557 
	C799.988647,403.202057 801.916260,401.017853 806.049194,401.016571 
	C835.345520,401.007294 864.641846,401.007782 893.938171,401.015747 
	C898.067322,401.016876 900.007812,403.185089 899.994080,407.251892 
	C899.979492,411.579712 900.061584,415.908936 899.978271,420.235138 
	C899.878052,425.438599 898.336853,426.953888 892.952698,426.978912 
	C880.468689,427.036865 867.984253,426.998810 855.000000,426.999664 
z"/>
<path fill="#28A745" opacity="1.000000" stroke="none" 
	d="
M840.000000,641.000000 
	C857.645203,641.000183 874.790344,640.986084 891.935547,641.007446 
	C898.768372,641.015930 899.966370,642.267395 899.996155,649.243713 
	C900.012512,653.072205 899.978516,656.900818 899.995239,660.729309 
	C900.012939,664.789551 898.092285,666.981934 893.957458,666.983337 
	C864.660828,666.993347 835.364258,666.992310 806.067627,666.984924 
	C801.940308,666.983887 799.992737,664.823181 800.005920,660.754395 
	C800.020508,656.260132 800.025757,651.765625 800.004333,647.271362 
	C799.983337,642.868164 802.254456,640.973877 806.541321,640.990967 
	C817.527405,641.034729 828.513733,641.002075 840.000000,641.000000 
z"/>
<path fill="#28A745" opacity="1.000000" stroke="none" 
	d="
M858.000000,593.000000 
	C869.486145,593.000183 880.472351,592.989319 891.458496,593.004333 
	C898.946777,593.014526 899.980835,594.087341 899.997742,601.765747 
	C900.005798,605.427795 899.980591,609.089844 899.993896,612.751831 
	C900.008728,616.820007 898.062561,618.983276 893.934509,618.984375 
	C864.638123,618.992004 835.341797,618.992859 806.045410,618.983215 
	C801.911316,618.981873 799.987793,616.793030 800.005249,612.731750 
	C800.021667,608.903320 799.987671,605.074707 800.004150,601.246277 
	C800.034180,594.266907 801.230225,593.017029 808.062256,593.007874 
	C824.541504,592.985779 841.020752,593.000244 858.000000,593.000000 
z"/>
<path fill="#28A745" opacity="1.000000" stroke="none" 
	d="
M847.000000,497.000336 
	C862.148193,497.000488 876.796387,496.991302 891.444580,497.004700 
	C898.939758,497.011536 899.980591,498.089844 899.997803,505.751923 
	C900.005981,509.413940 899.979065,513.076050 899.994385,516.738037 
	C900.011414,520.801331 898.080566,522.982361 893.948364,522.983643 
	C864.651978,522.992615 835.355652,522.992310 806.059265,522.984070 
	C801.929321,522.982910 799.991699,520.811584 800.005859,516.745605 
	C800.020874,512.417847 799.938232,508.088593 800.021729,503.762390 
	C800.122131,498.560455 801.664062,497.044281 807.049744,497.021088 
	C820.199585,496.964508 833.349915,497.001190 847.000000,497.000336 
z"/>
<path fill="#29A746" opacity="1.000000" stroke="none" 
	d="
M890.797668,715.998596 
	C863.018066,715.998596 835.713989,716.005554 808.409912,715.993469 
	C801.132751,715.990234 800.029053,714.868591 800.004822,707.597900 
	C799.990967,703.435791 800.003906,699.273499 800.013123,695.111328 
	C800.022217,690.996948 802.121033,689.007996 806.205505,689.008545 
	C835.340942,689.012268 864.476379,689.018921 893.611816,688.998962 
	C897.966858,688.995972 900.045349,691.089722 900.000671,695.428223 
	C899.959473,699.423462 900.006775,703.419495 899.996033,707.415222 
	C899.975647,714.964172 899.011963,715.906616 890.797668,715.998596 
M863.259705,705.339294 
	C863.259705,703.062622 863.259705,700.785950 863.259705,698.310669 
	C859.479675,698.310669 856.133240,698.310669 852.880005,698.310669 
	C852.880005,701.904480 852.880005,705.140015 852.880005,708.865417 
	C855.328735,708.865417 857.504517,709.179077 859.525818,708.755371 
	C860.880310,708.471375 862.015564,707.141357 863.259705,705.339294 
M843.538208,702.385681 
	C841.092896,701.648315 838.647644,700.910889 835.896973,700.081421 
	C835.896973,702.438843 835.896973,704.307495 835.896973,706.680847 
	C839.095581,705.669678 841.868469,704.793152 844.641296,703.916626 
	C844.471924,703.507935 844.302551,703.099243 843.538208,702.385681 
M847.858643,708.841064 
	C849.218445,704.564575 850.578308,700.288086 851.938110,696.011658 
	C851.429993,695.833801 850.921936,695.656006 850.413818,695.478210 
	C848.943054,700.014709 847.472290,704.551147 846.001526,709.087646 
	C846.496826,709.189148 846.992188,709.290649 847.858643,708.841064 
z"/>
<path fill="#9EA09C" opacity="1.000000" stroke="none" 
	d="
M470.343933,454.875244 
	C468.880707,454.821289 467.729034,454.954773 466.173676,455.135040 
	C466.031738,454.504517 465.795990,453.457275 465.539703,452.318787 
	C469.016998,452.502411 471.653137,452.730042 474.319214,449.545837 
	C475.528168,448.101837 480.637177,449.923218 484.125183,450.278381 
	C484.813477,456.913605 482.436859,458.778290 475.385925,456.397858 
	C473.835541,455.874512 472.233643,455.503723 470.343933,454.875244 
M478.724548,452.867249 
	C478.970978,452.697083 479.240784,452.550903 479.452209,452.344818 
	C479.535553,452.263550 479.504669,451.914215 479.498779,451.913513 
	C477.889648,451.721863 476.278107,451.550171 474.666656,451.377960 
	C474.634979,451.981689 474.603302,452.585449 474.571625,453.189178 
	C475.722260,453.114471 476.872864,453.039734 478.724548,452.867249 
z"/>
<path fill="#9EA09C" opacity="1.000000" stroke="none" 
	d="
M473.793823,593.617249 
	C477.047058,593.712646 480.374054,593.998230 483.968781,594.306824 
	C485.252136,600.543091 482.778870,602.665039 475.738464,600.591980 
	C472.826416,599.734558 469.994385,596.984131 466.264191,599.802063 
	C466.031158,598.504456 465.820587,597.331970 465.872162,597.619202 
	C469.033630,596.112061 471.450653,594.959778 473.793823,593.617249 
M477.809052,595.627869 
	C476.818726,595.921509 475.828369,596.215210 474.838043,596.508850 
	C474.976227,596.974854 475.114410,597.440857 475.252594,597.906860 
	C478.717255,596.720215 478.717255,596.720215 477.809052,595.627869 
z"/>
<path fill="#9EA09C" opacity="1.000000" stroke="none" 
	d="
M467.934631,502.419403 
	C466.930145,502.167114 466.140137,501.699371 464.586945,500.779785 
	C472.084656,500.257355 477.584076,496.349548 484.141968,498.387634 
	C485.806946,504.243835 484.297302,506.178406 475.614227,504.437836 
	C473.078491,503.929565 470.634949,502.961334 467.934631,502.419403 
M477.106140,499.797913 
	C476.307007,499.995819 475.507904,500.193756 474.708771,500.391693 
	C474.858307,500.931091 475.007812,501.470520 475.157349,502.009918 
	C476.660645,501.434570 478.163940,500.859192 479.667236,500.283844 
	C479.601593,500.022919 479.535950,499.762024 479.470306,499.501099 
	C478.912170,499.546295 478.354034,499.591522 477.106140,499.797913 
z"/>
<path fill="#9EA09C" opacity="1.000000" stroke="none" 
	d="
M484.139404,545.705200 
	C484.504364,553.030090 482.189697,554.649475 475.362732,552.406250 
	C472.646393,551.513733 469.827209,550.934204 467.054871,550.212158 
	C466.791840,550.709839 466.528809,551.207520 466.265778,551.705200 
	C466.043274,550.528992 465.820770,549.352722 465.728119,548.862854 
	C472.059875,547.458069 477.863831,545.382812 484.139404,545.705200 
M474.681183,549.428772 
	C476.349335,549.168640 478.017487,548.908447 479.685669,548.648315 
	C479.569763,548.135864 479.453888,547.623413 479.337982,547.111023 
	C477.705780,547.637634 476.073547,548.164307 474.681183,549.428772 
z"/>
<path fill="#9EA09C" opacity="1.000000" stroke="none" 
	d="
M513.593750,456.189636 
	C509.292969,455.903931 505.293701,455.541840 501.332916,454.930359 
	C499.302155,454.616852 497.340179,453.857544 496.481171,453.617126 
	C498.035492,452.840942 500.539520,451.590546 502.760284,450.481598 
	C504.704193,450.481598 506.826233,450.281097 508.892517,450.534821 
	C511.215942,450.820129 514.008972,450.868591 515.655396,452.192261 
	C517.820068,453.932556 516.417175,455.569946 513.593750,456.189636 
M512.925171,454.169403 
	C512.001709,454.338135 511.078217,454.506866 510.154755,454.675598 
	C510.297974,455.081055 510.441223,455.486511 510.584473,455.891968 
	C511.564667,455.406372 512.544861,454.920746 512.925171,454.169403 
M506.138794,455.885315 
	C506.610291,454.873291 507.081787,453.861267 507.553253,452.849274 
	C506.997284,452.646545 506.441315,452.443848 505.885315,452.241119 
	C505.780731,453.251740 505.676117,454.262360 506.138794,455.885315 
z"/>
<path fill="#9EA09C" opacity="1.000000" stroke="none" 
	d="
M465.430420,521.453796 
	C463.340149,520.255859 461.249878,519.057983 458.529907,517.499146 
	C462.073883,516.798340 464.414795,516.173035 466.795166,515.922974 
	C468.330536,515.761658 471.204895,515.925110 471.276306,516.330750 
	C471.648743,518.446716 471.506317,520.730652 471.024719,522.837585 
	C470.951111,523.159729 468.175018,522.864136 466.806030,522.534424 
	C467.809357,522.214539 468.655487,522.214539 469.501648,522.214539 
	C469.501404,521.800293 469.501160,521.386047 469.500916,520.971741 
	C468.144073,521.132446 466.787262,521.293152 465.430420,521.453796 
z"/>
<path fill="#9EA09C" opacity="1.000000" stroke="none" 
	d="
M527.600281,548.457520 
	C526.385071,551.031250 525.169861,553.605042 524.098755,555.873657 
	C523.113831,553.308838 522.238220,551.101501 521.428894,548.869995 
	C521.227905,548.315857 520.992188,547.545837 521.225037,547.126221 
	C521.464722,546.694153 522.726685,546.317688 522.741333,546.345215 
	C524.441040,549.520874 526.187744,546.650146 527.807800,546.332214 
	C532.600891,545.391479 532.654602,545.379761 535.067444,553.407898 
	C532.866699,551.555664 528.915283,555.626343 528.876770,549.819702 
	C530.158630,548.973511 531.070923,548.609253 531.983215,548.245056 
	C531.896912,547.947754 531.810547,547.650452 531.724243,547.353210 
	C530.349609,547.721313 528.974915,548.089417 527.600281,548.457520 
z"/>
<path fill="#9EA09C" opacity="1.000000" stroke="none" 
	d="
M507.681702,597.821594 
	C509.118286,594.327637 510.862946,592.822815 514.580627,595.106018 
	C515.969116,595.958740 518.493347,594.962341 520.865479,594.781128 
	C520.865479,595.273865 520.865479,597.018250 520.865479,598.086365 
	C518.945312,598.573853 516.693359,598.597473 515.144104,599.652771 
	C511.906281,601.858337 509.665771,601.345886 507.681702,597.821594 
M513.486450,599.212524 
	C513.749023,599.081360 514.025818,598.971252 514.267090,598.808533 
	C514.362366,598.744324 514.378479,598.562805 514.430664,598.434692 
	C513.316895,598.434692 512.203064,598.434692 511.089294,598.434692 
	C511.068573,598.705811 511.047852,598.976929 511.027130,599.248047 
	C511.640289,599.339905 512.253479,599.431702 513.486450,599.212524 
z"/>
<path fill="#444444" opacity="1.000000" stroke="none" 
	d="
M466.757141,714.026978 
	C464.415863,714.435059 462.074585,714.843140 459.733276,715.251160 
	C463.592468,714.125366 460.294525,706.568298 466.624237,708.214661 
	C468.179901,708.862549 470.079559,708.873413 470.429565,709.615356 
	C470.965088,710.750549 470.787445,712.570923 470.194733,713.734863 
	C469.919403,714.275513 467.955536,713.956360 466.757141,714.026978 
z"/>
<path fill="#9EA09C" opacity="1.000000" stroke="none" 
	d="
M546.083984,600.135986 
	C543.487000,594.750793 547.866638,594.078430 550.689819,592.396362 
	C551.516602,593.749390 552.350281,595.102905 552.835083,595.890015 
	C552.279053,597.439331 551.795532,598.786499 551.039917,600.891846 
	C550.041748,600.799316 548.176819,600.626465 546.083984,600.135986 
z"/>
<path fill="#9EA09C" opacity="1.000000" stroke="none" 
	d="
M537.317993,596.771118 
	C536.887390,596.201599 536.146484,595.738098 535.505249,595.336975 
	C538.670105,592.765503 539.359863,593.210083 540.918396,599.996582 
	C541.345276,597.945435 541.602844,596.707825 541.860413,595.470154 
	C542.283630,595.609070 542.706909,595.747925 543.130188,595.886780 
	C542.425903,597.482605 541.949280,600.258362 540.973389,600.446716 
	C538.356628,600.951599 535.526062,600.348694 532.780457,600.185852 
	C532.753113,599.742554 532.725769,599.299316 532.698364,598.856018 
	C534.134827,598.196411 535.571228,597.536804 537.317993,596.771118 
z"/>
<path fill="#9EA09C" opacity="1.000000" stroke="none" 
	d="
M488.957520,499.162964 
	C489.145905,494.397949 492.432678,495.341217 494.177490,496.473175 
	C496.408691,497.920654 497.866791,500.559753 499.759583,502.805756 
	C495.957214,503.832397 492.946655,504.645264 488.953125,505.723511 
	C488.953125,503.083099 488.953125,501.346527 488.957520,499.162964 
M494.375549,498.251038 
	C493.369385,498.006866 492.363220,497.762665 491.357086,497.518463 
	C491.129547,499.499695 490.902008,501.480896 490.650665,503.669434 
	C494.933289,503.786133 495.309570,501.697845 494.375549,498.251038 
z"/>
<path fill="#9EA09C" opacity="1.000000" stroke="none" 
	d="
M472.236816,407.000793 
	C472.856750,405.882233 473.322784,404.459259 473.788818,403.036285 
	C473.985535,403.046173 474.182251,403.056061 474.378967,403.065948 
	C474.378967,404.695068 474.378967,406.324219 474.378967,409.076904 
	C471.630280,408.639618 468.982361,408.218353 466.334442,407.797119 
	C467.334229,406.444427 468.333984,405.091705 469.375183,403.682922 
	C468.833527,403.682922 467.931061,403.682922 466.500641,403.682922 
	C470.740845,400.980927 471.359802,401.391968 472.236816,407.000793 
z"/>
<path fill="#9EA09C" opacity="1.000000" stroke="none" 
	d="
M546.255066,643.683289 
	C548.135681,643.030640 550.016357,642.378052 551.844666,641.743591 
	C552.064087,644.766602 552.203552,646.687622 552.348328,648.681702 
	C548.969238,649.540894 545.760376,649.673340 545.324341,644.249634 
	C545.004456,644.000427 545.000061,644.006836 545.000061,644.006836 
	C545.025757,644.176331 545.051514,644.345764 545.583130,644.813599 
	C547.332031,644.921265 548.575012,644.730591 549.818054,644.539917 
	C549.773865,644.254395 549.729736,643.968811 549.685608,643.683289 
	C548.542114,643.683289 547.398560,643.683289 546.255066,643.683289 
z"/>
<path fill="#9EA09C" opacity="1.000000" stroke="none" 
	d="
M467.016205,647.973450 
	C464.479462,649.470215 461.609344,650.101013 460.254547,647.031982 
	C459.528503,645.387268 460.090454,642.350708 461.270691,640.960693 
	C462.140259,639.936646 464.953125,640.562561 466.788818,641.414673 
	C465.020691,641.895691 463.118988,642.139160 461.570374,643.010376 
	C461.136749,643.254333 461.376068,646.164307 461.949371,646.422119 
	C463.140411,646.957703 464.761627,646.536621 466.592896,646.640808 
	C466.991943,647.173035 467.004059,647.573242 467.016205,647.973450 
z"/>
<path fill="#9EA09C" opacity="1.000000" stroke="none" 
	d="
M507.788269,546.531189 
	C508.137299,548.542114 508.227997,550.470398 508.365601,553.395081 
	C506.266907,552.740906 504.370941,552.149841 502.474915,551.558838 
	C503.525513,550.344727 504.576080,549.130615 505.841278,547.668457 
	C504.989990,547.620789 504.088043,547.570312 503.186096,547.519836 
	C503.154114,547.162720 503.122162,546.805603 503.090179,546.448486 
	C504.570129,546.448486 506.050049,546.448486 507.788269,546.531189 
z"/>
<path fill="#444444" opacity="1.000000" stroke="none" 
	d="
M484.410400,647.889221 
	C483.679932,647.762085 482.551758,647.890869 482.279907,647.468506 
	C479.257935,642.773682 478.818207,642.757935 475.304596,647.406738 
	C474.949585,647.876465 474.224182,648.066345 472.869049,648.849060 
	C472.615601,646.895447 471.906342,645.210999 472.419891,644.083862 
	C472.774078,643.306580 474.814697,643.034973 476.112244,643.005737 
	C478.722778,642.946655 481.340576,643.207520 484.316284,643.813904 
	C484.588287,645.490723 484.499329,646.689941 484.410400,647.889221 
z"/>
<path fill="#9EA09C" opacity="1.000000" stroke="none" 
	d="
M491.486084,593.497314 
	C492.192902,594.713806 493.219543,595.720764 494.276642,596.757507 
	C493.528076,597.026184 492.163544,597.515808 490.799011,598.005493 
	C490.814087,598.390747 490.829193,598.776062 490.844269,599.161316 
	C492.931824,599.589539 495.019379,600.017700 498.320465,600.694824 
	C494.666931,600.904968 492.173157,601.048340 489.302185,601.213440 
	C489.302185,597.990417 489.302185,595.275208 489.302185,592.197266 
	C491.283417,592.197266 493.162109,592.197266 495.040771,592.197266 
	C495.081421,592.378784 495.122070,592.560303 495.162720,592.741821 
	C494.043793,592.923767 492.924835,593.105713 491.486084,593.497314 
z"/>
<path fill="#9EA09C" opacity="1.000000" stroke="none" 
	d="
M485.990845,642.012634 
	C488.590118,642.012634 491.189392,642.012634 493.419861,642.012634 
	C492.198456,644.261230 491.089478,646.302856 489.814880,648.649353 
	C489.461121,646.903259 489.126190,645.250305 488.791290,643.597290 
	C488.513184,643.569275 488.235077,643.541260 487.957001,643.513245 
	C487.521667,645.270569 487.086334,647.027832 486.254456,648.455200 
	C485.902222,646.087769 485.946533,644.050171 485.990845,642.012634 
z"/>
<path fill="#444444" opacity="1.000000" stroke="none" 
	d="
M535.797058,640.795166 
	C538.024658,642.603638 539.983704,644.494629 542.716431,647.132446 
	C539.128357,647.851379 537.287415,648.220276 535.528564,648.572693 
	C535.528564,645.949646 535.528564,643.413696 535.797058,640.795166 
z"/>
<path fill="#444444" opacity="1.000000" stroke="none" 
	d="
M492.630096,406.088318 
	C493.675598,406.827148 494.457916,407.366486 495.240234,407.905823 
	C495.028503,408.333954 494.816772,408.762115 494.605072,409.190247 
	C490.952362,407.501434 487.299652,405.812622 483.330841,403.977661 
	C486.429688,402.007874 486.429688,402.007874 492.630096,406.088318 
z"/>
<path fill="#9EA09C" opacity="1.000000" stroke="none" 
	d="
M466.890228,714.371826 
	C467.955536,713.956360 469.919403,714.275513 470.194733,713.734863 
	C470.787445,712.570923 470.965088,710.750549 470.429565,709.615356 
	C470.079559,708.873413 468.179901,708.862549 466.927551,708.253662 
	C468.546265,708.187927 471.600250,708.230957 471.646149,708.624634 
	C471.895142,710.760620 471.401184,712.983215 471.163055,715.176025 
	C469.783142,715.022949 468.403229,714.869873 466.890228,714.371826 
z"/>
<path fill="#444444" opacity="1.000000" stroke="none" 
	d="
M478.570740,402.885559 
	C483.761658,402.933838 481.519653,406.034912 481.770813,408.818268 
	C477.349304,408.142853 477.956543,405.592987 478.570740,402.885559 
z"/>
<path fill="#444444" opacity="1.000000" stroke="none" 
	d="
M532.866821,642.661865 
	C532.966492,643.346619 533.072876,643.697754 532.994324,644.000854 
	C532.620728,645.443054 532.196716,646.872192 531.790649,648.305969 
	C531.214355,647.879822 530.127747,647.428040 530.147583,647.031860 
	C530.248535,645.021301 530.636414,643.025208 530.923706,641.024048 
	C531.545288,641.451416 532.166809,641.878784 532.866821,642.661865 
z"/>
<path fill="#444444" opacity="1.000000" stroke="none" 
	d="
M467.288269,648.100952 
	C467.004059,647.573242 466.991943,647.173035 466.946625,646.473694 
	C467.879822,646.123291 468.863678,645.960022 469.799286,646.106079 
	C470.010803,646.139099 470.054474,647.247681 470.175415,647.861145 
	C469.303711,647.983521 468.432007,648.105957 467.288269,648.100952 
z"/>
<path fill="#444444" opacity="1.000000" stroke="none" 
	d="
M485.727570,642.240601 
	C485.946533,644.050171 485.902222,646.087769 485.924377,648.557739 
	C485.754028,648.891479 485.517212,648.792725 484.888428,648.196777 
	C484.571167,646.346680 484.645844,644.993713 484.720520,643.640747 
	C484.968445,643.250000 485.216370,642.859314 485.727570,642.240601 
z"/>
<path fill="#9EA09C" opacity="1.000000" stroke="none" 
	d="
M484.721924,643.602112 
	C484.645844,644.993713 484.571167,646.346680 484.545654,648.021729 
	C484.594818,648.343872 484.512146,648.028381 484.461243,647.958801 
	C484.499329,646.689941 484.588287,645.490723 484.716278,643.945801 
	C484.755310,643.600159 484.723267,643.563477 484.721924,643.602112 
z"/>
<path fill="#9EA09C" opacity="1.000000" stroke="none" 
	d="
M540.789307,549.794189 
	C540.795959,550.254395 540.841370,550.432434 540.781067,550.560852 
	C540.698242,550.737061 540.535278,550.875610 540.406677,551.030273 
	C540.335266,549.981262 540.263855,548.932251 540.192383,547.883240 
	C540.340515,547.872681 540.488647,547.862183 540.636780,547.851685 
	C540.684814,548.397827 540.732849,548.943909 540.789307,549.794189 
z"/>
<path fill="#9EA09C" opacity="1.000000" stroke="none" 
	d="
M510.112549,646.437439 
	C510.093750,645.344421 510.093750,644.563782 510.093750,643.783081 
	C510.324402,643.782715 510.555054,643.782349 510.785706,643.781982 
	C510.785706,644.697205 510.792023,645.612549 510.779297,646.527649 
	C510.777222,646.676880 510.690765,646.824951 510.643311,646.973511 
	C510.472656,646.898926 510.302032,646.824341 510.112549,646.437439 
z"/>
<path fill="#9EA09C" opacity="1.000000" stroke="none" 
	d="
M545.008972,643.998596 
	C544.871643,643.804199 544.729858,643.611572 544.588013,643.419006 
	C544.637268,643.643250 544.686523,643.867554 544.867920,644.049316 
	C545.000061,644.006836 545.004456,644.000427 545.008972,643.998596 
z"/>
<path fill="#E8E8EC" opacity="1.000000" stroke="none" 
	d="
M861.381775,178.553253 
	C860.412537,180.035797 859.831909,181.453613 859.061279,183.335419 
	C857.237183,181.127930 855.549561,179.085587 853.961426,177.163696 
	C855.416687,175.553207 857.020630,173.778198 858.585571,172.046280 
	C859.969543,173.697418 861.394836,175.397858 863.132507,177.471024 
	C863.104797,177.491714 862.437622,177.990112 861.381775,178.553253 
z"/>
<path fill="#2D2C2C" opacity="1.000000" stroke="none" 
	d="
M718.012207,210.776962 
	C713.594116,188.758514 713.663208,167.035858 717.517273,145.428345 
	C719.552551,134.017944 725.516479,129.613525 735.549622,130.019180 
	C741.804382,130.272064 746.622375,133.045319 748.706238,138.953308 
	C750.458069,143.919830 751.836670,149.178314 752.313721,154.404922 
	C753.918701,171.991776 754.359619,189.610550 751.109863,207.102524 
	C750.658081,209.534088 749.903442,211.952484 748.960510,214.241669 
	C746.026428,221.364471 741.533447,224.273865 733.933594,224.230362 
	C726.295410,224.186646 722.083252,221.288437 719.094238,213.992035 
	C718.716675,213.070450 718.430054,212.111633 718.012207,210.776962 
z"/>
<path fill="#2D2C2C" opacity="1.000000" stroke="none" 
	d="
M636.485229,138.117645 
	C637.073914,137.933578 637.799072,137.987335 637.799194,138.042923 
	C637.847900,157.309769 637.846924,176.576736 637.846924,196.133911 
	C624.387817,196.133911 612.033569,196.133911 599.202026,196.133911 
	C611.732849,176.609116 624.007935,157.482727 636.485229,138.117645 
z"/>
<path fill="#EDEEF0" opacity="1.000000" stroke="none" 
	d="
M863.254333,705.809326 
	C862.015564,707.141357 860.880310,708.471375 859.525818,708.755371 
	C857.504517,709.179077 855.328735,708.865417 852.880005,708.865417 
	C852.880005,705.140015 852.880005,701.904480 852.880005,698.310669 
	C856.133240,698.310669 859.479675,698.310669 863.259705,698.310669 
	C863.259705,700.785950 863.259705,703.062622 863.254333,705.809326 
z"/>
<path fill="#EDEEED" opacity="1.000000" stroke="none" 
	d="
M843.835693,702.538086 
	C844.302551,703.099243 844.471924,703.507935 844.641357,703.916626 
	C841.868469,704.793152 839.095581,705.669678 835.896973,706.680847 
	C835.896973,704.307495 835.896973,702.438843 835.896973,700.081421 
	C838.647644,700.910889 841.092896,701.648315 843.835693,702.538086 
z"/>
<path fill="#9EA09C" opacity="1.000000" stroke="none" 
	d="
M847.673096,709.116577 
	C846.992188,709.290649 846.496826,709.189148 846.001526,709.087646 
	C847.472290,704.551147 848.943054,700.014709 850.413818,695.478210 
	C850.921936,695.656006 851.429993,695.833801 851.938110,696.011658 
	C850.578308,700.288086 849.218445,704.564575 847.673096,709.116577 
z"/>
<path fill="#3A3A3A" opacity="1.000000" stroke="none" 
	d="
M478.374023,452.916138 
	C476.872864,453.039734 475.722260,453.114471 474.571625,453.189178 
	C474.603302,452.585449 474.634979,451.981689 474.666656,451.377960 
	C476.278107,451.550171 477.889648,451.721863 479.498779,451.913513 
	C479.504669,451.914215 479.535553,452.263550 479.452209,452.344818 
	C479.240784,452.550903 478.970978,452.697083 478.374023,452.916138 
z"/>
<path fill="#3A3A3A" opacity="1.000000" stroke="none" 
	d="
M478.125000,595.479370 
	C478.717255,596.720215 478.717255,596.720215 475.252594,597.906860 
	C475.114410,597.440857 474.976227,596.974854 474.838043,596.508850 
	C475.828369,596.215210 476.818726,595.921509 478.125000,595.479370 
z"/>
<path fill="#3A3A3A" opacity="1.000000" stroke="none" 
	d="
M477.451019,499.717316 
	C478.354034,499.591522 478.912170,499.546295 479.470306,499.501099 
	C479.535950,499.762024 479.601593,500.022919 479.667236,500.283844 
	C478.163940,500.859192 476.660645,501.434570 475.157349,502.009918 
	C475.007812,501.470520 474.858307,500.931091 474.708771,500.391693 
	C475.507904,500.193756 476.307007,499.995819 477.451019,499.717316 
z"/>
<path fill="#3A3A3A" opacity="1.000000" stroke="none" 
	d="
M474.561249,549.059875 
	C476.073547,548.164307 477.705780,547.637634 479.337982,547.111023 
	C479.453888,547.623413 479.569763,548.135864 479.685669,548.648315 
	C478.017487,548.908447 476.349335,549.168640 474.561249,549.059875 
z"/>
<path fill="#3A3A3A" opacity="1.000000" stroke="none" 
	d="
M513.225098,454.302277 
	C512.544861,454.920746 511.564667,455.406372 510.584473,455.891968 
	C510.441223,455.486511 510.297974,455.081055 510.154755,454.675598 
	C511.078217,454.506866 512.001709,454.338135 513.225098,454.302277 
z"/>
<path fill="#3A3A3A" opacity="1.000000" stroke="none" 
	d="
M505.855164,455.579163 
	C505.676117,454.262360 505.780731,453.251740 505.885315,452.241119 
	C506.441315,452.443848 506.997284,452.646545 507.553253,452.849274 
	C507.081787,453.861267 506.610291,454.873291 505.855164,455.579163 
z"/>
<path fill="#3A3A3A" opacity="1.000000" stroke="none" 
	d="
M465.635437,521.673096 
	C466.787262,521.293152 468.144073,521.132446 469.500916,520.971741 
	C469.501160,521.386047 469.501404,521.800293 469.501648,522.214539 
	C468.655487,522.214539 467.809357,522.214539 466.610474,522.269409 
	C466.118622,522.180359 465.979523,522.036438 465.635437,521.673096 
z"/>
<path fill="#3A3A3A" opacity="1.000000" stroke="none" 
	d="
M527.853699,548.762695 
	C528.974915,548.089417 530.349609,547.721313 531.724243,547.353210 
	C531.810547,547.650452 531.896912,547.947754 531.983215,548.245056 
	C531.070923,548.609253 530.158630,548.973511 528.961060,549.479492 
	C528.486206,549.436768 528.296631,549.252319 527.853699,548.762695 
z"/>
<path fill="#3A3A3A" opacity="1.000000" stroke="none" 
	d="
M513.176514,599.368042 
	C512.253479,599.431702 511.640289,599.339905 511.027130,599.248047 
	C511.047852,598.976929 511.068573,598.705811 511.089294,598.434692 
	C512.203064,598.434692 513.316895,598.434692 514.430664,598.434692 
	C514.378479,598.562805 514.362366,598.744324 514.267090,598.808533 
	C514.025818,598.971252 513.749023,599.081360 513.176514,599.368042 
z"/>
<path fill="#444444" opacity="1.000000" stroke="none" 
	d="
M494.578064,498.595703 
	C495.309570,501.697845 494.933289,503.786133 490.650665,503.669434 
	C490.902008,501.480896 491.129547,499.499695 491.357056,497.518494 
	C492.363220,497.762665 493.369385,498.006866 494.578064,498.595703 
z"/>
<path fill="#3A3A3A" opacity="1.000000" stroke="none" 
	d="
M546.078064,643.908447 
	C547.398560,643.683289 548.542114,643.683289 549.685608,643.683289 
	C549.729736,643.968811 549.773865,644.254395 549.818054,644.539917 
	C548.575012,644.730591 547.332031,644.921265 545.835815,644.860840 
	C545.688721,644.451111 545.794861,644.292419 546.078064,643.908447 
z"/>
</svg>