<svg version="1.1" id="Layer_1" xmlns="http://www.w3.org/2000/svg" xmlns:xlink="http://www.w3.org/1999/xlink" x="0px" y="0px"
	 width="100%" viewBox="0 0 399 759" enable-background="new 0 0 399 759" xml:space="preserve">
<path fill="#010101" opacity="1.000000" stroke="none" 
	d="
M1.000006,287.000000 
	C1.000000,191.684326 1.000000,96.368652 1.000000,1.026491 
	C133.957703,1.026491 266.915405,1.026491 399.936554,1.026491 
	C399.936554,253.910812 399.936554,506.821655 399.936554,759.866211 
	C267.113922,759.866211 134.227676,759.866211 1.000000,759.866211 
	C1.000000,605.642761 1.000000,451.285248 1.327904,296.526276 
	C3.251814,296.023163 4.847820,295.921539 6.443832,295.819885 
	C4.629229,292.879913 2.814621,289.939941 1.000006,287.000000 
M239.947617,477.450012 
	C239.633087,477.311951 239.318558,477.173920 238.253174,476.885986 
	C237.494263,476.945160 236.735352,477.004333 235.494492,476.384918 
	C235.235733,474.775970 234.976959,473.167053 234.723358,471.590240 
	C233.121780,471.236908 231.712769,470.926086 230.386841,470.633575 
	C230.079697,465.787262 233.241547,460.826660 238.673737,458.754242 
	C236.129028,455.525269 233.827820,452.605255 231.074493,449.111572 
	C224.473099,449.111572 217.058685,449.111572 209.219849,449.111572 
	C209.219849,459.573822 209.151855,469.700897 209.334381,479.823425 
	C209.350998,480.745636 210.995407,482.372772 211.846802,482.348907 
	C212.787643,482.322479 214.270050,480.889954 214.479523,479.859039 
	C214.901871,477.780640 214.628098,475.559418 214.630112,473.397125 
	C214.637802,465.155151 214.636887,465.147186 222.997162,465.961365 
	C223.438538,466.004333 223.848602,466.369171 224.273239,466.584167 
	C224.082199,466.791138 223.891174,466.998108 223.700134,467.205109 
	C226.156021,470.161438 228.611908,473.117798 231.665054,476.793091 
	C232.175415,476.955505 233.701385,477.441162 235.070038,478.789764 
	C234.841492,480.991821 235.339096,483.058624 237.975266,482.199646 
	C238.994888,481.867401 239.338638,479.460938 239.947617,477.450012 
M101.542336,201.176483 
	C101.705063,201.087524 101.867783,200.998550 102.087914,201.772598 
	C102.227150,203.358139 102.366386,204.943665 102.513107,206.614410 
	C108.902542,206.614410 114.839722,206.614410 121.360649,206.614410 
	C121.360649,201.465897 121.194351,196.503220 121.417351,191.558105 
	C121.573898,188.086624 120.272095,186.992630 116.396240,187.416901 
	C116.128723,185.812637 115.861206,184.208389 115.554413,182.368576 
	C109.464767,182.368576 103.408073,182.368576 97.174606,182.368576 
	C97.174606,184.249207 97.174606,185.943405 97.174606,187.826859 
	C100.063049,187.826859 102.551506,187.683838 105.017052,187.860504 
	C108.682571,188.123154 112.331894,188.611832 115.617638,189.640274 
	C111.200363,190.015930 106.783089,190.391571 102.336823,190.769699 
	C102.226593,192.746414 102.136398,194.363922 101.166573,195.867249 
	C99.128479,195.931702 96.645065,195.079926 96.795174,198.749588 
	C96.934738,202.161316 99.105705,201.201614 101.542336,201.176483 
M226.142288,565.730713 
	C226.084503,565.130615 226.026718,564.530579 225.806412,563.137512 
	C222.478226,559.327698 222.921051,554.668640 223.211578,550.202698 
	C223.462936,546.338745 221.653763,542.162048 225.323593,538.627136 
	C226.527466,537.467529 226.157715,534.625854 223.010529,534.621094 
	C221.354065,534.618591 219.697296,534.601135 218.041214,534.626587 
	C214.933121,534.674255 215.179825,536.707947 215.653198,538.790405 
	C216.375580,541.968201 217.779800,545.134460 217.768066,548.301453 
	C217.751251,552.840149 219.291855,557.601990 215.656921,561.935059 
	C214.028381,563.876404 215.972961,565.880310 218.880676,566.715332 
	C219.709564,568.554199 220.538467,570.393066 221.886353,573.383240 
	C223.550476,570.089111 224.667923,567.877136 225.803452,565.820557 
	C225.803452,565.820557 225.647461,565.832520 226.142288,565.730713 
M230.998688,231.077255 
	C228.813766,226.600067 225.131897,229.724686 222.075455,228.505508 
	C220.873810,227.013428 219.672180,225.521332 218.247620,223.402695 
	C214.661407,222.766373 211.075195,222.130051 207.465332,221.489532 
	C207.465332,227.956604 207.465332,233.182205 207.465332,238.729492 
	C210.318848,238.729492 212.840073,239.016113 215.241318,238.603928 
	C216.376999,238.408966 217.283066,236.876358 218.887375,235.674759 
	C219.944916,235.447586 221.002441,235.220413 222.463364,235.511261 
	C223.310135,235.611221 224.156891,235.711182 225.071594,236.660324 
	C225.911209,240.924911 229.260162,238.495697 231.468552,238.904388 
	C232.169525,239.034134 233.115753,237.838669 233.949768,237.249649 
	C233.026123,235.945023 232.070419,234.661301 231.198776,233.322800 
	C230.944458,232.932281 230.929840,232.385696 230.998688,231.077255 
M88.590080,187.300842 
	C88.307274,185.699432 88.024460,184.098022 87.722389,182.387543 
	C85.203865,182.387543 82.779503,182.387543 80.297981,182.387543 
	C79.954697,184.382935 79.650879,186.148926 78.435730,187.666733 
	C74.009010,188.483994 74.914604,184.502609 73.894249,182.163177 
	C72.276054,182.250641 70.853798,182.327515 69.171883,182.418427 
	C69.171883,188.836731 69.171883,194.943604 68.993782,201.510223 
	C69.053001,202.319489 69.112228,203.128769 69.019279,204.848648 
	C69.019279,208.073669 69.019279,211.298691 69.019279,214.799911 
	C71.244049,214.671722 72.672829,214.589401 74.297028,214.495819 
	C74.510292,210.863815 74.707298,207.508652 74.926659,203.772888 
	C79.536369,203.772888 83.622093,203.772888 87.934280,203.772888 
	C87.934280,201.564560 87.934280,199.779602 88.806053,198.351639 
	C90.173744,198.270569 91.541428,198.189484 93.069824,198.098877 
	C93.069824,195.512726 92.908195,193.394348 93.107773,191.310532 
	C93.405678,188.200058 92.172844,187.122787 88.590080,187.300842 
M128.047028,187.728363 
	C126.912697,188.659042 125.105957,189.407440 124.793251,190.560867 
	C124.251923,192.557495 124.816231,194.824173 124.592239,196.943283 
	C124.228096,200.388336 125.481102,201.894104 129.252472,201.610062 
	C129.485657,201.830170 129.761459,201.959137 130.044281,202.844635 
	C129.778305,205.301834 130.139847,207.092361 133.350357,206.788727 
	C135.649567,206.571274 138.000351,206.583694 140.302185,206.787140 
	C143.397430,207.060699 144.059204,205.529541 144.138855,202.409088 
	C145.752563,201.949112 147.366272,201.489151 148.984619,201.027878 
	C148.984619,199.392014 148.984619,197.803375 148.984619,196.112885 
	C147.064362,196.112885 145.389709,196.112885 143.779251,196.112885 
	C143.475952,198.123413 143.232758,199.735458 142.073792,201.259354 
	C138.385254,201.270737 134.696701,201.282120 130.724869,200.828705 
	C130.489990,200.551910 130.255096,200.275116 130.043686,199.082703 
	C130.039780,195.722153 130.035873,192.361588 130.400482,188.632294 
	C130.605499,188.353500 130.810516,188.074692 131.943512,187.792175 
	C136.011856,187.868027 140.080215,187.943893 143.732712,188.779373 
	C142.923462,193.306183 145.162201,193.842316 149.104767,192.610443 
	C149.008316,191.047028 148.913422,189.508987 148.795044,187.590347 
	C146.899155,187.801987 145.469574,187.961563 143.804459,187.295792 
	C143.642395,185.712784 143.480316,184.129776 143.288147,182.252823 
	C139.020889,182.252823 135.090652,182.252823 130.459061,182.186264 
	C129.961121,184.046997 129.463196,185.907730 128.047028,187.728363 
M196.751663,186.924576 
	C197.714584,188.015717 198.577286,189.910080 199.659500,190.045120 
	C202.722473,190.427292 205.875351,190.089020 209.459686,190.323196 
	C209.770248,190.516708 210.080811,190.710220 210.219452,191.808838 
	C210.055847,194.765472 209.892242,197.722122 208.888809,201.032364 
	C203.142227,201.032364 197.395660,201.032364 191.446228,201.032364 
	C191.446228,203.247635 191.446228,204.801910 191.446228,206.570633 
	C197.751343,206.570633 203.787048,206.570633 210.516968,206.570633 
	C210.176559,204.285202 209.899612,202.425735 210.495010,201.089188 
	C212.097534,201.089188 213.700073,201.089188 215.562927,201.089188 
	C215.562927,197.343658 215.562927,193.955750 215.562927,190.321960 
	C213.826324,190.321960 212.378204,190.321960 210.674759,189.858871 
	C210.481384,189.564453 210.288010,189.270035 210.242783,188.074097 
	C209.307404,186.957718 208.476425,185.014954 207.416931,184.881119 
	C204.335876,184.491928 201.163315,184.827225 197.424408,184.378174 
	C197.247345,182.591812 197.070297,180.805450 197.831787,179.178543 
	C203.704651,179.178543 209.577515,179.178543 215.473969,179.178543 
	C215.473969,177.028366 215.473969,175.624161 215.473969,173.997223 
	C209.175186,173.997223 203.157532,173.997223 196.747162,173.997223 
	C196.835297,175.900360 196.909622,177.505341 196.154694,179.004120 
	C194.593933,179.118423 193.033157,179.232712 191.362625,179.355057 
	C191.362625,181.294724 191.362625,182.842743 191.362625,184.190857 
	C193.386108,184.866165 195.132721,185.449066 196.751663,186.924576 
M188.493500,450.628815 
	C188.663452,451.894043 188.833389,453.159241 188.079758,454.369781 
	C184.499512,453.911957 183.020462,455.223572 183.187881,459.071777 
	C183.476303,465.701569 183.129517,472.358612 183.397263,478.990143 
	C183.445999,480.197662 185.154968,481.338135 186.097488,482.509521 
	C186.918747,481.363922 188.366318,480.261230 188.448288,479.065002 
	C188.738297,474.832947 188.561264,470.568878 188.561264,466.106354 
	C193.084061,466.106354 196.800339,466.106354 201.122437,466.106354 
	C201.122437,471.633209 201.122437,476.855042 201.122437,483.492432 
	C203.518677,482.238800 206.008850,481.571533 206.032227,480.826813 
	C206.305328,472.131927 206.207199,463.425385 206.207199,454.575836 
	C203.906754,454.575836 202.434235,454.575836 201.119247,453.663574 
	C201.056808,452.443848 200.994385,451.224121 200.685989,449.320435 
	C196.696671,449.510223 192.707352,449.700012 188.493500,450.628815 
M60.200951,185.937134 
	C55.811520,185.537674 51.422085,185.138199 47.138554,183.954987 
	C47.102150,182.372787 47.065746,180.790604 47.962349,179.213150 
	C53.720093,179.213150 59.477833,179.213150 65.396523,179.213150 
	C65.396523,177.106979 65.396523,175.582886 65.396523,174.106140 
	C59.007679,174.106140 52.981403,174.106140 46.712894,174.106140 
	C46.712894,175.994919 46.712894,177.479034 45.889946,178.848297 
	C44.335369,178.970352 42.780792,179.092422 41.221931,179.214813 
	C41.221931,181.350540 41.221931,182.921112 41.221931,185.040970 
	C43.234169,185.040970 44.987469,185.040970 46.721275,185.948593 
	C46.349789,188.899094 47.110569,190.616119 50.627232,190.259903 
	C53.387863,189.980255 56.200432,190.213318 59.315384,190.574173 
	C59.570423,190.781097 59.858814,190.917542 60.174488,191.892975 
	C60.025665,194.821289 59.876842,197.749588 58.888515,201.032196 
	C53.140400,201.032196 47.392288,201.032196 41.449272,201.032196 
	C41.449272,203.250336 41.449272,204.805710 41.449272,206.546295 
	C47.757469,206.546295 53.793137,206.546295 60.514797,206.546295 
	C60.180145,204.303497 59.901272,202.434509 60.494415,201.089584 
	C62.093815,201.089584 63.693218,201.089584 65.571571,201.089584 
	C65.571571,197.366547 65.571571,193.985138 65.571571,190.333344 
	C63.882786,190.253876 62.435429,190.185776 60.873703,189.441589 
	C60.681618,188.568359 60.489536,187.695145 60.200951,185.937134 
M240.727112,603.978455 
	C241.167953,603.628784 241.608795,603.279114 242.049667,602.929504 
	C241.400345,602.612854 240.751022,602.296204 239.671631,601.465576 
	C238.403885,599.889343 237.136124,598.313110 235.811615,596.666321 
	C233.903778,599.083862 232.308746,601.105042 230.636505,603.224060 
	C232.180099,604.987488 233.568649,606.573853 234.871490,608.826904 
	C234.671570,609.275635 234.590042,609.884338 234.246277,610.138672 
	C233.596497,610.619507 232.397018,610.724487 232.149704,611.297791 
	C231.758545,612.204529 231.963516,613.368347 231.916199,614.423401 
	C233.417694,613.246155 235.062195,612.203552 236.355209,610.830078 
	C236.928360,610.221252 236.790787,608.943359 237.170883,607.346680 
	C238.175858,606.251587 239.180832,605.156494 240.727112,603.978455 
M267.019989,195.080368 
	C267.625702,195.077957 268.231415,195.075562 268.956512,195.935074 
	C268.956512,197.855728 268.956512,199.776398 268.956512,201.827454 
	C271.045624,201.947952 272.500031,202.031830 273.940857,202.967651 
	C274.687256,204.251633 275.281219,206.495560 276.208130,206.642761 
	C279.196655,207.117355 282.307800,206.819626 285.612366,206.819626 
	C285.748444,204.529129 285.853149,202.766220 286.863098,201.210831 
	C288.255280,201.121872 289.647461,201.032913 291.016846,200.945404 
	C291.016846,196.348709 291.016846,192.277115 291.016846,187.774857 
	C289.153015,187.856445 287.555695,187.926361 285.921051,187.142532 
	C285.790741,185.580856 285.660431,184.019165 285.530151,182.457703 
	C281.722565,182.457703 278.373901,182.457703 275.070831,182.457703 
	C274.619202,184.485779 274.235229,186.210266 273.052094,187.707413 
	C270.546326,187.342361 268.624146,187.737549 268.240204,190.979599 
	C267.631012,190.946411 267.021790,190.913223 266.297089,190.024200 
	C265.775146,186.036926 262.933472,188.157715 260.921112,187.142914 
	C260.790741,185.581223 260.660370,184.019547 260.529968,182.457443 
	C256.722992,182.457443 253.374390,182.457443 250.080658,182.457443 
	C249.619019,184.483780 249.226807,186.205368 247.993744,187.702438 
	C242.025391,187.005493 244.378540,191.291992 243.996506,194.508392 
	C244.063690,195.315399 244.130875,196.122421 244.039749,197.771179 
	C244.120682,199.128784 244.201599,200.486404 244.285614,201.895721 
	C246.132233,201.982727 247.543320,202.049194 248.940872,202.967621 
	C249.687210,204.251617 250.281082,206.495560 251.207947,206.642746 
	C254.196457,207.117325 257.307617,206.819595 260.611572,206.819595 
	C260.748016,204.529053 260.853027,202.766220 261.840210,201.207611 
	C263.249146,201.139435 264.658081,201.071274 266.109283,201.001068 
	C266.226776,198.719284 266.319489,196.918411 267.019989,195.080368 
M187.284134,535.206299 
	C187.115219,542.226318 186.882782,549.245972 186.834579,556.266785 
	C186.825668,557.567261 187.559952,558.872925 188.693665,560.329590 
	C189.446365,560.281311 190.199081,560.233032 191.405960,560.844116 
	C191.768723,562.390564 192.131485,563.937012 192.452911,565.307190 
	C196.729218,565.307190 200.612656,565.307190 204.665024,565.307190 
	C204.785568,563.254211 204.882019,561.611206 205.818237,560.274048 
	C208.915054,560.860779 209.954117,559.525574 209.870590,556.468628 
	C209.706970,550.480774 209.743301,544.483826 209.849854,538.493408 
	C209.920700,534.510376 208.153351,534.052185 205.024139,535.377136 
	C205.024139,543.764099 205.024139,551.890137 204.091965,560.080688 
	C200.339767,560.080688 196.587570,560.080688 192.188629,560.080688 
	C192.188629,553.100342 192.272354,546.703430 192.135437,540.311218 
	C192.096512,538.493896 191.415405,536.690308 190.271515,534.727966 
	C189.504883,534.781372 188.738266,534.834778 187.284134,535.206299 
M215.935715,702.948059 
	C215.935715,702.948059 216.021851,702.988770 216.102234,703.685059 
	C217.719360,705.893738 219.336472,708.102478 220.829178,710.141235 
	C224.091873,707.476074 227.054871,705.055664 230.017868,702.635315 
	C225.256042,704.203064 223.537064,700.184814 221.272339,697.389709 
	C219.311905,699.479736 217.650970,701.250427 215.935715,702.948059 
M264.871338,235.890823 
	C264.860535,233.283920 264.849701,230.677032 264.457520,227.298798 
	C262.133911,225.167557 260.191040,225.323380 257.703888,227.490875 
	C256.637848,228.419907 253.613235,228.453094 252.389404,227.594666 
	C248.799622,225.076691 247.116501,225.130356 244.222458,228.791656 
	C242.115829,224.565536 238.527649,226.564346 235.681381,226.319611 
	C235.681381,230.704086 235.681381,234.693146 235.681381,238.682190 
	C236.225784,238.700470 236.770187,238.718750 237.314590,238.737030 
	C237.634659,235.691086 237.954727,232.645157 238.294662,229.410065 
	C239.806808,229.410065 241.205399,229.410065 242.715652,229.410065 
	C243.061020,232.653656 243.384979,235.696182 243.708923,238.738708 
	C244.460632,238.723984 245.212341,238.709244 245.964050,238.694519 
	C246.016602,235.829178 246.069138,232.963837 246.942383,229.776352 
	C250.562851,228.915466 251.045975,230.988632 251.108612,233.903397 
	C251.143860,235.544235 251.900879,237.169571 252.332748,238.801865 
	C253.732986,237.991623 255.133240,237.181366 256.741699,236.250626 
	C259.174286,238.343994 261.828979,241.855438 264.871338,235.890823 
M155.013016,564.393555 
	C154.747482,564.519470 154.481934,564.645447 154.216400,564.771362 
	C154.703857,564.844849 155.191299,564.918335 156.432816,565.397522 
	C163.698029,565.469543 170.965118,565.636230 178.226059,565.492676 
	C179.124054,565.474976 179.989410,563.805847 181.212860,562.517517 
	C181.249527,561.719482 181.286194,560.921387 181.395050,559.173218 
	C181.395050,552.906555 181.395050,546.639893 181.395050,540.373169 
	C180.901108,540.620605 180.407166,540.868042 179.913208,541.115417 
	C178.128128,539.276062 176.343033,537.436768 173.953384,534.974487 
	C169.735214,534.974487 164.416351,535.109497 159.108871,534.922302 
	C156.071457,534.815125 155.229706,536.044495 155.134262,539.217712 
	C153.726166,539.547302 152.318085,539.876953 150.416840,540.321960 
	C150.416840,545.482056 150.579514,550.570129 150.367432,555.642639 
	C150.184464,560.019043 151.871231,561.413818 155.759521,560.678284 
	C155.672836,561.940857 155.586136,563.203491 155.013016,564.393555 
M196.645447,235.963882 
	C199.387085,233.949402 199.469971,227.371719 197.376175,224.658157 
	C193.922592,220.182251 189.497528,222.482590 185.343445,222.082367 
	C185.343445,227.691483 185.343445,233.044724 185.343445,238.731705 
	C188.223755,238.731705 190.737869,239.011017 193.134872,238.602768 
	C194.184998,238.423920 194.995987,236.840973 195.840393,235.934570 
	C195.840393,235.934570 195.800262,236.009109 196.645447,235.963882 
M302.049866,201.861221 
	C302.162201,203.428528 302.274506,204.995834 302.410614,206.894974 
	C304.404938,206.785233 305.947021,206.700363 307.578186,206.610611 
	C307.578186,204.660110 307.578186,203.118896 307.578186,201.128311 
	C305.533661,201.128311 303.782074,201.128311 302.211548,200.204086 
	C302.231720,197.735306 302.024231,195.236435 302.345337,192.807434 
	C302.594482,190.923035 303.503784,189.125885 304.738464,187.057297 
	C306.102112,184.018005 304.734131,182.101349 302.243378,179.955215 
	C302.123871,178.979095 302.004395,178.002991 301.764252,176.585663 
	C301.353424,176.617966 300.942627,176.650284 299.758911,176.558823 
	C296.760895,177.409714 293.067169,184.313171 294.310822,186.739639 
	C294.386139,186.886581 294.459564,187.035507 294.519684,187.189072 
	C295.271912,189.111450 296.385895,190.980927 296.680542,192.971527 
	C297.057007,195.514984 296.771881,198.156372 296.771881,201.036209 
	C298.898102,201.036209 300.510254,201.036209 302.049866,201.861221 
M134.422897,459.618042 
	C134.328461,458.194061 134.234039,456.770050 134.096024,454.688965 
	C140.152878,454.688965 145.729019,454.688965 151.575058,454.688965 
	C151.575058,452.481506 151.575058,450.904510 151.575058,449.061920 
	C145.768814,449.061920 140.190567,449.061920 134.360779,449.061920 
	C134.018707,450.818970 133.716812,452.369568 133.443939,453.771118 
	C131.757355,454.254913 130.384476,454.648712 128.941589,455.062592 
	C129.032181,456.779205 129.108200,458.219604 129.184235,459.660004 
	C129.637314,459.438202 130.090408,459.216400 130.543488,458.994629 
	C132.037079,461.154358 133.530685,463.314087 135.929459,465.664093 
	C139.374237,465.519440 142.819000,465.374756 146.457214,466.246460 
	C146.502686,467.904846 146.414291,469.580017 146.619583,471.218353 
	C147.162689,475.552673 145.461807,477.240021 141.029831,476.850189 
	C137.130768,476.507233 133.177673,476.778442 128.843506,476.778442 
	C128.964539,479.071991 129.047226,480.638947 129.130417,482.215271 
	C135.181046,482.215271 140.747757,482.215271 146.402130,482.215271 
	C146.682510,480.450562 146.911545,479.009125 147.174637,477.353180 
	C148.634491,477.056183 150.031036,476.772034 151.473206,476.478638 
	C151.473206,472.815765 151.473206,469.445587 151.473206,465.950897 
	C149.483688,465.693542 147.854080,465.482727 146.607147,464.460419 
	C147.227020,461.411163 146.434357,459.677277 142.869141,460.019623 
	C140.243774,460.271729 137.586563,460.192139 134.422897,459.618042 
M235.992737,190.006226 
	C235.847504,188.392914 235.702271,186.779587 235.538788,184.963455 
	C233.677597,184.963455 232.096909,184.963455 230.498169,184.963455 
	C230.180862,186.812897 229.914276,188.366699 229.601395,190.190308 
	C227.865082,190.021530 226.465500,189.885483 224.612579,189.705368 
	C224.612579,184.292755 224.612579,179.210434 224.612579,173.896912 
	C222.547165,173.896912 220.974136,173.896912 219.296646,173.896912 
	C219.296646,184.930328 219.296646,195.681213 219.296646,206.794800 
	C221.175934,206.698273 222.739029,206.617996 224.750839,206.514664 
	C224.750839,202.864365 224.750839,199.596268 224.750839,196.217407 
	C226.753830,195.910324 228.316284,195.670792 229.766785,195.448410 
	C230.178833,193.589493 230.524185,192.031448 230.945602,190.130249 
	C232.860199,190.418854 234.456894,190.659546 235.795609,191.818604 
	C235.795609,196.701614 235.795609,201.584641 235.795609,206.748199 
	C237.967178,206.645081 239.379807,206.578003 240.969254,206.502533 
	C240.969254,201.004822 240.969254,195.820526 240.969254,190.036026 
	C239.043213,190.380081 237.534714,190.649567 235.992737,190.006226 
M316.306519,200.268234 
	C316.473633,198.884109 316.640717,197.500000 316.682312,197.155502 
	C322.595551,195.549484 327.679962,194.168564 332.785034,192.782043 
	C332.785034,189.029785 332.785034,185.762192 332.785034,182.414703 
	C327.287079,182.414703 322.041840,182.414703 316.631500,182.414703 
	C316.321442,184.189453 316.048523,185.751495 315.789001,187.237015 
	C313.988922,187.567215 312.420227,187.854965 311.046143,188.107025 
	C311.046143,192.669952 311.046143,196.891571 311.046143,201.382736 
	C313.069427,201.257141 314.702637,201.155777 316.185455,202.009048 
	C316.276611,203.459900 316.367737,204.910751 316.475433,206.625259 
	C322.051147,206.625259 327.302704,206.625259 332.705475,206.625259 
	C332.705475,203.906296 332.705475,201.336380 332.705475,198.894470 
	C326.972687,199.701096 321.574066,200.460709 316.306519,200.268234 
M157.899490,184.299454 
	C156.428665,185.921951 154.957840,187.544449 152.481354,190.276276 
	C152.481354,192.482376 152.481354,196.595535 152.481354,200.850891 
	C154.253052,201.193207 155.841721,201.500153 157.460861,201.813004 
	C157.793991,203.499695 158.100571,205.052048 158.381622,206.475037 
	C163.971344,206.475037 169.208527,206.475037 174.407883,206.475037 
	C174.407883,203.698959 174.407883,201.302429 174.407883,197.422104 
	C171.330154,198.965820 169.251434,200.550537 166.944717,201.023758 
	C164.259903,201.574539 161.375458,201.152222 158.332520,201.152222 
	C158.332520,199.283691 158.332520,197.876434 158.332520,197.108063 
	C163.955093,195.640579 169.259796,194.256058 174.480469,192.893463 
	C174.480469,189.230881 174.480469,185.966446 174.480469,181.595398 
	C168.749176,182.229614 163.369522,182.824921 157.899490,184.299454 
M167.501587,448.854980 
	C163.416138,448.854980 159.330673,448.854980 154.827667,448.854980 
	C154.950531,451.165253 155.033203,452.719788 155.121643,454.382721 
	C158.533676,454.544342 161.471649,454.683472 164.929901,454.847260 
	C164.929901,464.043488 164.929901,472.924133 164.929901,482.156738 
	C166.855682,482.250244 168.257233,482.318329 170.217972,482.413574 
	C170.217972,473.134827 170.217972,464.243530 170.217972,454.977600 
	C173.777115,454.726196 176.829880,454.510590 180.139465,454.276825 
	C180.139465,452.410553 180.139465,450.856476 180.139465,448.855347 
	C176.065048,448.855347 172.270920,448.855347 167.501587,448.854980 
M256.475830,448.821747 
	C252.174286,448.821747 247.872742,448.821747 243.307007,448.821747 
	C243.307007,450.895721 243.307007,452.482178 243.307007,454.298889 
	C246.599487,454.535675 249.666000,454.756226 253.166061,455.007935 
	C253.166061,463.088745 253.028976,470.723297 253.289108,478.344299 
	C253.337448,479.759949 254.984848,481.121033 255.894272,482.507294 
	C256.752411,481.068848 258.281036,479.662231 258.351044,478.186371 
	C258.634888,472.204407 258.719238,466.187408 258.388214,460.210419 
	C258.147217,455.859467 259.505463,454.017273 263.980255,454.595764 
	C268.347809,455.160431 269.731415,453.281464 267.951416,448.822174 
	C264.406006,448.822174 260.928223,448.822174 256.475830,448.821747 
M253.899719,536.689514 
	C253.161560,536.008911 252.434494,534.751404 251.683517,534.736938 
	C244.084778,534.590759 236.482132,534.647766 228.408905,534.647766 
	C228.504608,536.460999 228.314636,538.722778 228.677505,538.815308 
	C231.756897,539.600037 234.936966,539.989807 238.483505,540.562012 
	C238.483505,547.532837 238.340073,554.330872 238.593948,561.114075 
	C238.650681,562.629883 239.882095,565.164978 240.951050,565.383972 
	C244.433411,566.097412 243.745300,563.108948 243.760376,561.092346 
	C243.811996,554.182068 243.780167,547.271240 243.780167,539.867432 
	C246.678986,539.867432 248.846817,540.123840 250.906723,539.763428 
	C252.002090,539.571777 252.910492,538.311584 253.899719,536.689514 
M344.885071,182.432114 
	C344.226532,183.278610 343.568024,184.125122 343.398682,184.342804 
	C340.743530,183.401779 338.602325,182.642899 336.036133,181.733398 
	C336.036133,190.680984 336.036133,198.553421 336.036133,206.554413 
	C337.830811,206.554413 339.272186,206.554413 341.289093,206.554413 
	C341.289093,202.417130 341.187286,198.474457 341.316223,194.539352 
	C341.460236,190.144058 344.072021,187.505585 348.347992,187.863098 
	C350.442596,188.038239 352.445496,189.310059 354.490570,190.083557 
	C355.646088,184.140961 353.435059,182.159103 344.885071,182.432114 
M125.181717,224.818451 
	C124.599670,223.814987 124.017616,222.811508 123.435562,221.808044 
	C123.002861,221.955002 122.570152,222.101959 122.137444,222.248932 
	C122.137444,225.687424 122.405167,229.157913 121.999962,232.547974 
	C121.847153,233.826370 120.136971,234.918610 119.136742,236.095718 
	C117.990509,234.877121 116.123177,233.799637 115.851219,232.409943 
	C115.318542,229.688019 115.746452,226.788605 115.610664,223.970642 
	C115.579369,223.321106 114.877884,222.703888 114.484810,222.071793 
	C113.908699,222.510681 113.025963,222.832291 112.805984,223.407379 
	C111.326462,227.275467 113.251396,234.970474 116.265152,237.722305 
	C119.029968,235.552856 125.140800,235.996506 129.007599,239.047775 
	C129.319061,235.677994 129.596710,232.674088 129.895554,229.440842 
	C131.937149,229.440842 133.704391,229.440842 135.478577,229.443161 
	C135.954697,232.518051 136.430801,235.592957 136.906906,238.667847 
	C137.382431,238.594223 137.857971,238.520584 138.333496,238.446960 
	C140.555405,231.085220 138.527618,224.895981 128.485916,226.133972 
	C127.466743,226.259628 126.379074,225.829651 125.181717,224.818451 
M140.455399,227.167984 
	C140.530060,231.006134 140.604721,234.844269 140.679382,238.682419 
	C141.384781,238.680832 142.090179,238.679260 142.795563,238.677673 
	C143.076431,235.393219 143.357285,232.108765 143.681229,228.320297 
	C146.075714,232.224030 148.013016,235.382416 150.165878,238.892242 
	C149.643127,232.982956 149.218063,228.178131 148.745193,222.832733 
	C144.039398,226.123245 144.039398,226.123245 142.850372,223.929886 
	C142.294189,224.634140 141.578506,225.540344 140.455399,227.167984 
M21.674229,100.897171 
	C20.484161,108.075821 27.733475,109.370232 30.444111,114.123474 
	C32.828003,111.409828 34.937080,109.009010 36.895576,106.779594 
	C34.748730,104.166130 32.689297,101.659073 30.639257,99.158691 
	C27.845924,101.849472 27.875097,101.788383 24.234776,100.049950 
	C23.578009,99.736320 22.571045,100.156013 21.674229,100.897171 
M161.179916,230.776871 
	C159.487686,231.811432 157.795456,232.845993 155.175247,234.447876 
	C157.249100,235.278732 159.167038,236.047134 161.084976,236.815521 
	C159.448395,238.002472 157.886398,237.979263 156.393021,238.287933 
	C155.195267,238.535507 154.080780,239.185745 152.929337,239.657303 
	C153.143402,240.090698 153.357483,240.524094 153.571548,240.957504 
	C154.851410,240.717407 156.121750,240.380875 157.412735,240.253433 
	C164.012329,239.601974 164.716064,238.631210 164.203903,229.759018 
	C164.135361,228.571915 163.157455,227.437286 162.600662,226.278366 
	C162.133926,227.490387 161.667206,228.702393 161.179916,230.776871 
M299.965607,253.112030 
	C301.732086,251.194748 303.498566,249.277481 305.254547,247.371597 
	C302.956329,244.873795 300.767914,242.495346 298.450348,239.976547 
	C296.218536,242.482559 294.072998,244.891724 292.046936,247.166702 
	C293.685181,249.338882 295.164825,251.534210 296.927185,253.472534 
	C297.364868,253.953918 298.717224,253.603653 299.965607,253.112030 
M90.917694,444.704895 
	C89.112785,446.984741 87.307877,449.264618 85.444336,451.618500 
	C87.619011,453.900665 89.702309,456.086914 92.048897,458.549469 
	C94.209198,456.047729 96.016708,453.954529 97.744377,451.953796 
	C95.961678,449.003296 94.384491,446.337708 92.700340,443.741577 
	C92.598312,443.584320 91.645592,443.978912 90.917694,444.704895 
M213.415741,411.079681 
	C212.451599,409.801392 211.487457,408.523132 211.106216,408.017670 
	C208.179779,410.392944 205.924973,412.223083 203.861145,413.898224 
	C206.129150,416.583740 208.109482,418.928650 210.430908,421.677490 
	C211.656113,417.979218 218.127670,416.799683 213.415741,411.079681 
M222.917831,493.440521 
	C224.011215,492.266418 225.104614,491.092316 226.176224,489.941589 
	C223.999847,487.488525 221.977936,485.209564 219.958374,482.933289 
	C218.152557,485.463318 216.471893,487.817963 214.780838,490.187195 
	C216.638763,492.743652 218.414780,495.187408 220.277847,497.750977 
	C221.175735,496.198364 221.827713,495.070953 222.917831,493.440521 
M269.214783,405.198578 
	C269.131531,405.054413 269.068573,404.891907 268.959320,404.771271 
	C268.851074,404.651642 268.601288,404.469299 268.575226,404.492889 
	C262.709412,409.808197 262.632202,410.572968 267.259674,416.933136 
	C267.641785,417.458313 267.967560,418.024475 268.307892,418.553528 
	C270.459381,416.171661 272.540161,413.868103 274.489990,411.709473 
	C272.798462,409.688812 271.131592,407.697632 269.214783,405.198578 
M178.588730,230.594864 
	C178.739197,230.398788 178.889648,230.202713 179.040100,230.006638 
	C178.730560,230.342667 178.477310,230.771820 178.101837,230.998795 
	C176.393188,232.031830 174.650131,233.007935 172.373398,234.318954 
	C172.418594,235.210373 172.498138,236.779190 172.574844,238.291870 
	C176.517487,238.291870 180.026794,238.291870 183.536102,238.291870 
	C183.637299,237.764175 183.738480,237.236496 183.839676,236.708801 
	C181.106079,236.106583 178.372482,235.504349 175.114273,234.786560 
	C176.377808,233.105850 177.237015,231.962982 178.588730,230.594864 
M177.583588,428.283234 
	C175.363312,431.091705 176.175003,433.669006 178.606201,435.650909 
	C179.297577,436.214508 181.384506,435.963562 182.220642,435.307617 
	C187.981903,430.787811 181.152039,428.211029 180.619598,424.371735 
	C179.604736,425.675476 178.800171,426.709076 177.583588,428.283234 
M385.473969,304.449646 
	C379.181488,308.050720 379.173950,308.851013 385.381317,314.278748 
	C390.912415,310.116943 390.938049,309.774841 385.473969,304.449646 
M222.734619,117.736313 
	C222.734619,122.122543 222.734619,126.508781 222.734619,130.895020 
	C223.220963,130.875076 223.707306,130.855133 224.193665,130.835190 
	C226.653442,126.298561 228.623932,121.793434 222.734619,117.736313 
M235.823730,432.758545 
	C234.611023,430.631927 233.398315,428.505280 232.185593,426.378662 
	C231.721695,426.527039 231.257782,426.675446 230.793869,426.823822 
	C230.660339,428.821075 230.178406,430.878723 230.510788,432.795166 
	C230.748367,434.165131 232.078186,435.345642 232.920639,436.610687 
	C233.912109,435.569946 234.903564,434.529205 235.823730,432.758545 
M311.164062,431.435303 
	C314.028320,432.343262 316.578888,429.964661 317.243530,425.765656 
	C310.840027,424.428589 309.591797,425.424713 311.164062,431.435303 
M386.660217,684.098694 
	C385.597900,684.627441 383.562500,685.396179 383.624542,685.647766 
	C384.213440,688.035889 385.158600,690.336182 386.001251,692.661743 
	C386.541931,692.499329 387.082642,692.336853 387.623322,692.174377 
	C387.438324,689.657104 387.253326,687.139832 386.660217,684.098694 
M156.664383,156.356689 
	C156.851532,158.019211 157.038681,159.681732 157.225830,161.344269 
	C158.265198,160.864624 159.304565,160.384979 160.343933,159.905319 
	C159.277206,158.585327 158.210464,157.265320 156.664383,156.356689 
M372.699554,652.737488 
	C371.631012,652.045227 370.562469,651.352905 369.493835,650.660645 
	C369.057983,651.637695 368.184998,652.673706 368.306671,653.575623 
	C368.433716,654.517395 369.518311,655.329956 370.184326,656.199036 
	C371.063416,655.272949 371.942535,654.346802 372.699554,652.737488 
M174.632080,132.389282 
	C174.939865,133.668137 175.247665,134.946991 175.555450,136.225845 
	C176.388306,135.850739 177.643921,135.682068 177.952133,135.050812 
	C178.384186,134.165924 178.111191,132.936798 178.139786,131.854904 
	C177.094711,131.850433 176.049652,131.845963 174.632080,132.389282 
M298.393677,236.151108 
	C298.206879,236.016022 298.020111,235.880936 297.833313,235.745850 
	C297.951569,235.944031 298.069824,236.142197 298.393677,236.151108 
M180.494308,440.051941 
	C180.494308,440.051941 180.455063,440.004974 180.494308,440.051941 
z"/>
<path fill="#22252A" opacity="1.000000" stroke="none" 
	d="
M1.000006,287.449982 
	C2.814621,289.939941 4.629229,292.879913 6.443832,295.819885 
	C4.847820,295.921539 3.251814,296.023163 1.327904,296.062378 
	C1.000000,293.299988 1.000000,290.599976 1.000006,287.449982 
z"/>
<path fill="#22C108" opacity="1.000000" stroke="none" 
	d="
M235.227371,477.926788 
	C233.701385,477.441162 232.175415,476.955505 231.665054,476.793091 
	C228.611908,473.117798 226.156021,470.161438 223.700134,467.205109 
	C223.891174,466.998108 224.082199,466.791138 224.273239,466.584167 
	C223.848602,466.369171 223.438538,466.004333 222.997162,465.961365 
	C214.636887,465.147186 214.637802,465.155151 214.630112,473.397125 
	C214.628098,475.559418 214.901871,477.780640 214.479523,479.859039 
	C214.270050,480.889954 212.787643,482.322479 211.846802,482.348907 
	C210.995407,482.372772 209.350998,480.745636 209.334381,479.823425 
	C209.151855,469.700897 209.219849,459.573822 209.219849,449.111572 
	C217.058685,449.111572 224.473099,449.111572 231.074493,449.111572 
	C233.827820,452.605255 236.129028,455.525269 238.673737,458.754242 
	C233.241547,460.826660 230.079697,465.787262 230.386841,470.633575 
	C231.712769,470.926086 233.121780,471.236908 234.723358,471.590240 
	C234.976959,473.167053 235.235733,474.775970 235.635941,476.888794 
	C235.623505,477.601074 235.440170,477.779083 235.227371,477.926788 
M224.472870,454.658844 
	C222.657898,454.660522 220.758224,454.328949 219.052948,454.762299 
	C217.501572,455.156494 216.161362,456.381714 214.728088,457.240601 
	C216.086716,458.159668 217.339767,459.549286 218.829590,459.883484 
	C220.871887,460.341705 223.181122,460.374847 225.216232,459.902283 
	C227.628860,459.342072 232.159241,462.311859 232.063324,457.207825 
	C231.980164,452.782257 227.761566,455.370087 224.472870,454.658844 
z"/>
<path fill="#C1A708" opacity="1.000000" stroke="none" 
	d="
M157.944672,183.859833 
	C163.369522,182.824921 168.749176,182.229614 174.480469,181.595398 
	C174.480469,185.966446 174.480469,189.230881 174.480469,192.893463 
	C169.259796,194.256058 163.955093,195.640579 158.332520,197.108063 
	C158.332520,197.876434 158.332520,199.283691 158.332520,201.152222 
	C161.375458,201.152222 164.259903,201.574539 166.944717,201.023758 
	C169.251434,200.550537 171.330154,198.965820 174.407883,197.422104 
	C174.407883,201.302429 174.407883,203.698959 174.407883,206.475037 
	C169.208527,206.475037 163.971344,206.475037 158.381622,206.475037 
	C158.100571,205.052048 157.793991,203.499695 157.460861,201.813004 
	C155.841721,201.500153 154.253052,201.193207 152.481354,200.850891 
	C152.481354,196.595535 152.481354,192.482376 152.481354,190.276276 
	C154.957840,187.544449 156.428665,185.921951 157.944672,183.859833 
z"/>
<path fill="#23C808" opacity="1.000000" stroke="none" 
	d="
M200.961731,454.575836 
	C202.434235,454.575836 203.906754,454.575836 206.207199,454.575836 
	C206.207199,463.425385 206.305328,472.131927 206.032227,480.826813 
	C206.008850,481.571533 203.518677,482.238800 201.122437,483.492432 
	C201.122437,476.855042 201.122437,471.633209 201.122437,466.106354 
	C196.800339,466.106354 193.084061,466.106354 188.561264,466.106354 
	C188.561264,470.568878 188.738297,474.832947 188.448288,479.065002 
	C188.366318,480.261230 186.918747,481.363922 186.097504,482.509521 
	C185.154968,481.338135 183.445999,480.197662 183.397263,478.990143 
	C183.129517,472.358612 183.476303,465.701569 183.187881,459.071777 
	C183.020462,455.223572 184.499512,453.911957 188.515717,454.378052 
	C188.951675,454.386292 188.973328,454.451447 188.840622,454.919006 
	C188.880432,460.528900 191.778076,461.482361 201.036453,459.178497 
	C201.036453,457.686859 201.036453,456.068848 201.019684,454.483276 
	C201.002899,454.515656 200.961731,454.575836 200.961731,454.575836 
z"/>
<path fill="#25D109" opacity="1.000000" stroke="none" 
	d="
M167.989197,448.855164 
	C172.270920,448.855347 176.065048,448.855347 180.139465,448.855347 
	C180.139465,450.856476 180.139465,452.410553 180.139465,454.276825 
	C176.829880,454.510590 173.777115,454.726196 170.217972,454.977600 
	C170.217972,464.243530 170.217972,473.134827 170.217972,482.413574 
	C168.257233,482.318329 166.855682,482.250244 164.929901,482.156738 
	C164.929901,472.924133 164.929901,464.043488 164.929901,454.847260 
	C161.471649,454.683472 158.533676,454.544342 155.121643,454.382721 
	C155.033203,452.719788 154.950531,451.165253 154.827667,448.854980 
	C159.330673,448.854980 163.416138,448.854980 167.989197,448.855164 
z"/>
<path fill="#23C808" opacity="1.000000" stroke="none" 
	d="
M256.963135,448.821960 
	C260.928223,448.822174 264.406006,448.822174 267.951416,448.822174 
	C269.731415,453.281464 268.347809,455.160431 263.980255,454.595764 
	C259.505463,454.017273 258.147217,455.859467 258.388214,460.210419 
	C258.719238,466.187408 258.634888,472.204407 258.351044,478.186371 
	C258.281036,479.662231 256.752411,481.068848 255.894257,482.507294 
	C254.984848,481.121033 253.337448,479.759949 253.289108,478.344299 
	C253.028976,470.723297 253.166061,463.088745 253.166061,455.007935 
	C249.666000,454.756226 246.599487,454.535675 243.307007,454.298889 
	C243.307007,452.482178 243.307007,450.895721 243.307007,448.821747 
	C247.872742,448.821747 252.174286,448.821747 256.963135,448.821960 
z"/>
<path fill="#C6AC08" opacity="1.000000" stroke="none" 
	d="
M316.335846,201.054413 
	C314.702637,201.155777 313.069427,201.257141 311.046143,201.382736 
	C311.046143,196.891571 311.046143,192.669952 311.046143,188.107025 
	C312.420227,187.854965 313.988922,187.567215 315.789001,187.237015 
	C316.048523,185.751495 316.321442,184.189453 316.631500,182.414703 
	C322.041840,182.414703 327.287079,182.414703 332.785034,182.414703 
	C332.785034,185.762192 332.785034,189.029785 332.785034,192.782043 
	C327.679962,194.168564 322.595551,195.549484 316.682312,197.155502 
	C316.640717,197.500000 316.473633,198.884109 316.277924,200.730316 
	C316.249329,201.192398 316.335846,201.054413 316.335846,201.054413 
z"/>
<path fill="#CA0912" opacity="1.000000" stroke="none" 
	d="
M253.901489,537.111572 
	C252.910492,538.311584 252.002090,539.571777 250.906723,539.763428 
	C248.846817,540.123840 246.678986,539.867432 243.780167,539.867432 
	C243.780167,547.271240 243.811996,554.182068 243.760376,561.092346 
	C243.745300,563.108948 244.433411,566.097412 240.951050,565.383972 
	C239.882095,565.164978 238.650681,562.629883 238.593948,561.114075 
	C238.340073,554.330872 238.483505,547.532837 238.483505,540.562012 
	C234.936966,539.989807 231.756897,539.600037 228.677505,538.815308 
	C228.314636,538.722778 228.504608,536.460999 228.408905,534.647766 
	C236.482132,534.647766 244.084778,534.590759 251.683517,534.736938 
	C252.434494,534.751404 253.161560,536.008911 253.901489,537.111572 
z"/>
<path fill="#C6AC08" opacity="1.000000" stroke="none" 
	d="
M69.171883,201.050476 
	C69.171883,194.943604 69.171883,188.836731 69.171883,182.418427 
	C70.853798,182.327515 72.276054,182.250641 73.894249,182.163177 
	C74.914604,184.502609 74.009010,188.483994 78.910461,187.806427 
	C79.385201,187.946136 79.481407,187.956070 79.678452,188.341446 
	C79.875496,190.009232 79.875496,191.291656 79.875496,192.750336 
	C77.997643,193.013123 76.456299,193.228806 74.621025,193.485626 
	C74.718903,195.233246 74.797050,196.628510 74.875328,198.026169 
	C79.544197,198.026169 83.803139,198.026169 88.022415,198.049515 
	C87.982758,198.072861 87.934280,197.994629 87.934280,197.994629 
	C87.934280,199.779602 87.934280,201.564560 87.934280,203.772888 
	C83.622093,203.772888 79.536369,203.772888 74.926659,203.772888 
	C74.707298,207.508652 74.510292,210.863815 74.297028,214.495819 
	C72.672829,214.589401 71.244049,214.671722 69.019279,214.799911 
	C69.019279,211.298691 69.019279,208.073669 69.245110,204.174286 
	C69.371254,202.683456 69.271568,201.866959 69.171883,201.050476 
z"/>
<path fill="#C6AC08" opacity="1.000000" stroke="none" 
	d="
M236.053589,190.900238 
	C234.456894,190.659546 232.860199,190.418854 230.945602,190.130249 
	C230.524185,192.031448 230.178833,193.589493 229.766785,195.448410 
	C228.316284,195.670792 226.753830,195.910324 224.750839,196.217407 
	C224.750839,199.596268 224.750839,202.864365 224.750839,206.514664 
	C222.739029,206.617996 221.175934,206.698273 219.296646,206.794800 
	C219.296646,195.681213 219.296646,184.930328 219.296646,173.896912 
	C220.974136,173.896912 222.547165,173.896912 224.612579,173.896912 
	C224.612579,179.210434 224.612579,184.292755 224.612579,189.705368 
	C226.465500,189.885483 227.865082,190.021530 229.601395,190.190308 
	C229.914276,188.366699 230.180862,186.812897 230.498169,184.963455 
	C232.096909,184.963455 233.677597,184.963455 235.538788,184.963455 
	C235.702271,186.779587 235.847504,188.392914 236.017639,190.434998 
	C236.042526,190.863770 236.053589,190.900223 236.053589,190.900238 
z"/>
<path fill="#CA0912" opacity="1.000000" stroke="none" 
	d="
M218.721329,565.987854 
	C215.972961,565.880310 214.028381,563.876404 215.656921,561.935059 
	C219.291855,557.601990 217.751251,552.840149 217.768066,548.301453 
	C217.779800,545.134460 216.375580,541.968201 215.653198,538.790405 
	C215.179825,536.707947 214.933121,534.674255 218.041214,534.626587 
	C219.697296,534.601135 221.354065,534.618591 223.010529,534.621094 
	C226.157715,534.625854 226.527466,537.467529 225.323593,538.627136 
	C221.653763,542.162048 223.462936,546.338745 223.211578,550.202698 
	C222.921051,554.668640 222.478226,559.327698 225.781250,563.842163 
	C225.719894,564.975342 225.683685,565.403931 225.647461,565.832520 
	C225.647461,565.832520 225.803452,565.820557 225.361298,565.726074 
	C222.853210,565.750305 220.787262,565.869080 218.721329,565.987854 
z"/>
<path fill="#C6AC08" opacity="1.000000" stroke="none" 
	d="
M117.033813,187.899200 
	C120.272095,186.992630 121.573898,188.086624 121.417351,191.558105 
	C121.194351,196.503220 121.360649,201.465897 121.360649,206.614410 
	C114.839722,206.614410 108.902542,206.614410 102.513107,206.614410 
	C102.366386,204.943665 102.227150,203.358139 102.038193,201.373230 
	C101.988464,200.973846 101.941605,201.034454 102.408363,201.086746 
	C107.076797,201.139038 111.278473,201.139038 115.809937,201.139038 
	C115.676926,199.062714 115.588303,197.679291 115.478226,195.960983 
	C110.740364,195.960983 106.333633,195.960983 101.961670,195.937210 
	C101.996452,195.913437 102.046204,195.981430 102.046204,195.981430 
	C102.136398,194.363922 102.226593,192.746414 102.336823,190.769699 
	C106.783089,190.391571 111.200363,190.015930 115.997131,189.157684 
	C116.595695,188.416458 116.814751,188.157822 117.033813,187.899200 
z"/>
<path fill="#D5B809" opacity="1.000000" stroke="none" 
	d="
M345.320740,182.343384 
	C353.435059,182.159103 355.646088,184.140961 354.490234,190.084534 
	C352.445496,189.310059 350.442596,188.038239 348.347992,187.863098 
	C344.072021,187.505585 341.460236,190.144058 341.316223,194.539352 
	C341.187286,198.474457 341.289093,202.417130 341.289093,206.554413 
	C339.272186,206.554413 337.830811,206.554413 336.036133,206.554413 
	C336.036133,198.553421 336.036133,190.680984 336.036133,181.733398 
	C338.602325,182.642899 340.743530,183.401779 343.398682,184.342804 
	C343.568024,184.125122 344.226532,183.278610 345.320740,182.343384 
z"/>
<path fill="#B708A0" opacity="1.000000" stroke="none" 
	d="
M125.252457,225.237976 
	C126.379074,225.829651 127.466743,226.259628 128.485916,226.133972 
	C138.527618,224.895981 140.555405,231.085220 138.333496,238.446960 
	C137.857971,238.520584 137.382431,238.594223 136.906906,238.667847 
	C136.430801,235.592957 135.954697,232.518051 135.475113,229.442001 
	C133.704391,229.440842 131.937149,229.440842 129.895554,229.440842 
	C129.596710,232.674088 129.319061,235.677994 129.007599,239.047775 
	C125.140800,235.996506 119.029968,235.552856 116.265152,237.722305 
	C113.251396,234.970474 111.326462,227.275467 112.805984,223.407379 
	C113.025963,222.832291 113.908699,222.510681 114.484802,222.071793 
	C114.877884,222.703888 115.579369,223.321106 115.610664,223.970642 
	C115.746452,226.788605 115.318542,229.688019 115.851219,232.409943 
	C116.123177,233.799637 117.990509,234.877121 119.136734,236.095718 
	C120.136971,234.918610 121.847153,233.826370 121.999962,232.547974 
	C122.405167,229.157913 122.137444,225.687424 122.137444,222.248932 
	C122.570152,222.101959 123.002861,221.955002 123.435562,221.808044 
	C124.017616,222.811508 124.599670,223.814987 125.252457,225.237976 
z"/>
<path fill="#D00812" opacity="1.000000" stroke="none" 
	d="
M155.859741,538.774536 
	C155.229706,536.044495 156.071457,534.815125 159.108871,534.922302 
	C164.416351,535.109497 169.735214,534.974487 173.953384,534.974487 
	C176.343033,537.436768 178.128128,539.276062 179.913208,541.115417 
	C180.407166,540.868042 180.901108,540.620605 181.395050,540.373169 
	C181.395050,546.639893 181.395050,552.906555 181.022766,559.700806 
	C179.066483,560.327637 177.482483,560.426941 175.988174,560.019775 
	C176.077850,553.096375 176.077850,546.679321 176.077850,539.489258 
	C168.872879,539.489258 162.417770,539.489258 155.964264,539.306641 
	C155.965866,539.124023 155.859741,538.774536 155.859741,538.774536 
z"/>
<path fill="#23C808" opacity="1.000000" stroke="none" 
	d="
M146.224472,465.271942 
	C147.854080,465.482727 149.483688,465.693542 151.473206,465.950897 
	C151.473206,469.445587 151.473206,472.815765 151.473206,476.478638 
	C150.031036,476.772034 148.634491,477.056183 147.174637,477.353180 
	C146.911545,479.009125 146.682510,480.450562 146.402130,482.215271 
	C140.747757,482.215271 135.181046,482.215271 129.130417,482.215271 
	C129.047226,480.638947 128.964539,479.071991 128.843506,476.778442 
	C133.177673,476.778442 137.130768,476.507233 141.029831,476.850189 
	C145.461807,477.240021 147.162689,475.552673 146.619583,471.218353 
	C146.414291,469.580017 146.502686,467.904846 146.342682,465.751221 
	C146.228134,465.255981 146.224472,465.271942 146.224472,465.271942 
z"/>
<path fill="#22C108" opacity="1.000000" stroke="none" 
	d="
M135.024277,465.473816 
	C133.530685,463.314087 132.037079,461.154358 130.543488,458.994629 
	C130.090408,459.216400 129.637314,459.438202 129.184235,459.660004 
	C129.108200,458.219604 129.032181,456.779205 128.941589,455.062592 
	C130.384476,454.648712 131.757355,454.254913 133.443939,453.771118 
	C133.716812,452.369568 134.018707,450.818970 134.360779,449.061920 
	C140.190567,449.061920 145.768814,449.061920 151.575058,449.061920 
	C151.575058,450.904510 151.575058,452.481506 151.575058,454.688965 
	C145.729019,454.688965 140.152878,454.688965 134.096024,454.688965 
	C134.234039,456.770050 134.328461,458.194061 134.696152,460.312378 
	C134.987701,462.495758 135.005981,463.984772 135.024277,465.473816 
z"/>
<path fill="#D5B809" opacity="1.000000" stroke="none" 
	d="
M301.884888,177.026871 
	C302.004395,178.002991 302.123871,178.979095 302.238373,180.708817 
	C302.862122,183.404938 303.490875,185.347458 304.119659,187.289963 
	C303.503784,189.125885 302.594482,190.923035 302.345337,192.807434 
	C302.024231,195.236435 302.231720,197.735306 302.153564,200.652740 
	C302.095612,201.101395 302.122406,201.036209 302.122406,201.036209 
	C300.510254,201.036209 298.898102,201.036209 296.771881,201.036209 
	C296.771881,198.156372 297.057007,195.514984 296.680542,192.971527 
	C296.385895,190.980927 295.271912,189.111450 294.519684,187.189072 
	C294.459564,187.035507 294.386139,186.886581 294.310822,186.739639 
	C293.067169,184.313171 296.760895,177.409714 300.475006,176.742233 
	C301.422363,176.959381 301.653625,176.993134 301.884888,177.026871 
z"/>
<path fill="#B708A0" opacity="1.000000" stroke="none" 
	d="
M140.659119,226.807266 
	C141.578506,225.540344 142.294189,224.634140 142.850372,223.929886 
	C144.039398,226.123245 144.039398,226.123245 148.745193,222.832733 
	C149.218063,228.178131 149.643127,232.982956 150.165878,238.892242 
	C148.013016,235.382416 146.075714,232.224030 143.681229,228.320297 
	C143.357285,232.108765 143.076431,235.393219 142.795563,238.677673 
	C142.090179,238.679260 141.384781,238.680832 140.679382,238.682419 
	C140.604721,234.844269 140.530060,231.006134 140.659119,226.807266 
z"/>
<path fill="#B708A0" opacity="1.000000" stroke="none" 
	d="
M195.915558,235.895615 
	C194.995987,236.840973 194.184998,238.423920 193.134872,238.602768 
	C190.737869,239.011017 188.223755,238.731705 185.343445,238.731705 
	C185.343445,233.044724 185.343445,227.691483 185.343445,222.082367 
	C189.497528,222.482590 193.922592,220.182251 197.376175,224.658157 
	C199.469971,227.371719 199.387085,233.949402 196.234253,235.528412 
	C195.823044,231.838623 195.823044,228.584305 195.823044,225.269409 
	C192.853775,225.269409 190.495087,225.269409 187.815918,225.269409 
	C187.815918,227.279099 187.765747,228.912079 187.830170,230.540543 
	C187.893326,232.136734 188.073090,233.728287 188.217209,235.514404 
	C191.032593,235.653809 193.474075,235.774719 195.915558,235.895615 
z"/>
<path fill="#CA0912" opacity="1.000000" stroke="none" 
	d="
M180.869904,562.901978 
	C179.989410,563.805847 179.124054,565.474976 178.226059,565.492676 
	C170.965118,565.636230 163.698029,565.469543 156.084946,565.095581 
	C155.737076,564.793579 155.499466,564.466064 155.499451,564.466064 
	C155.586136,563.203491 155.672836,561.940857 155.840851,560.338562 
	C155.922180,559.998840 155.970764,560.050964 156.414642,560.132568 
	C159.935104,559.808777 163.011688,559.403381 166.260666,558.843201 
	C166.653244,558.469238 166.842545,558.226013 167.392395,557.885742 
	C170.511078,558.686035 173.238327,559.559265 176.060654,560.823730 
	C177.727127,561.777283 179.298523,562.339600 180.869904,562.901978 
z"/>
<path fill="#22252A" opacity="1.000000" stroke="none" 
	d="
M21.699997,100.567154 
	C22.571045,100.156013 23.578009,99.736320 24.234776,100.049950 
	C27.875097,101.788383 27.845924,101.849472 30.634562,99.155350 
	C32.689297,101.659073 34.748730,104.166130 36.895576,106.779594 
	C34.937080,109.009010 32.828003,111.409828 30.444111,114.123474 
	C27.733475,109.370232 20.484161,108.075821 21.699997,100.567154 
z"/>
<path fill="#B30710" opacity="1.000000" stroke="none" 
	d="
M191.028809,534.880432 
	C191.415405,536.690308 192.096512,538.493896 192.135437,540.311218 
	C192.272354,546.703430 192.188629,553.100342 192.188629,560.080688 
	C196.587570,560.080688 200.339767,560.080688 204.536255,560.046509 
	C204.980530,560.012268 204.978485,559.968201 204.978485,559.968201 
	C204.882019,561.611206 204.785568,563.254211 204.665024,565.307190 
	C200.612656,565.307190 196.729218,565.307190 192.452911,565.307190 
	C192.131485,563.937012 191.768723,562.390564 191.201355,560.033875 
	C191.007446,551.109253 191.018127,542.994812 191.028809,534.880432 
z"/>
<path fill="#0C010B" opacity="1.000000" stroke="none" 
	d="
M218.470535,224.029266 
	C219.672180,225.521332 220.873810,227.013428 222.184326,229.318527 
	C222.215469,231.752106 222.137711,233.372650 222.059967,234.993225 
	C221.002441,235.220413 219.944916,235.447586 218.133713,235.735046 
	C215.101318,235.795319 212.822586,235.795319 210.409302,235.795319 
	C210.409302,231.844330 210.409302,228.498016 210.409302,225.394165 
	C213.381195,224.890976 215.925873,224.460114 218.470535,224.029266 
z"/>
<path fill="#C1A708" opacity="1.000000" stroke="none" 
	d="
M316.260651,201.531738 
	C316.335846,201.054413 316.249329,201.192398 316.212372,201.206360 
	C321.574066,200.460709 326.972687,199.701096 332.705475,198.894470 
	C332.705475,201.336380 332.705475,203.906296 332.705475,206.625259 
	C327.302704,206.625259 322.051147,206.625259 316.475433,206.625259 
	C316.367737,204.910751 316.276611,203.459900 316.260651,201.531738 
z"/>
<path fill="#D00812" opacity="1.000000" stroke="none" 
	d="
M205.002335,560.014221 
	C205.024139,551.890137 205.024139,543.764099 205.024139,535.377136 
	C208.153351,534.052185 209.920700,534.510376 209.849854,538.493408 
	C209.743301,544.483826 209.706970,550.480774 209.870590,556.468628 
	C209.954117,559.525574 208.915054,560.860779 205.398361,560.121094 
	C204.978485,559.968201 204.980530,560.012268 205.002335,560.014221 
z"/>
<path fill="#6B045D" opacity="1.000000" stroke="none" 
	d="
M244.955307,228.952850 
	C247.116501,225.130356 248.799622,225.076691 252.389404,227.594666 
	C253.613235,228.453094 256.637848,228.419907 257.703888,227.490875 
	C260.191040,225.323380 262.133911,225.167557 264.186768,227.732513 
	C260.336121,227.943405 258.766327,229.466858 258.984680,233.192795 
	C259.237091,237.498962 262.120026,236.627899 264.733032,236.507202 
	C261.828979,241.855438 259.174286,238.343994 256.741699,236.250626 
	C255.133240,237.181366 253.732986,237.991623 252.332748,238.801880 
	C251.900879,237.169571 251.143860,235.544235 251.108612,233.903397 
	C251.045975,230.988632 250.562851,228.915466 246.351349,229.732605 
	C245.491974,229.443527 245.223633,229.198181 244.955307,228.952850 
z"/>
<path fill="#C1A708" opacity="1.000000" stroke="none" 
	d="
M116.715027,187.658051 
	C116.814751,188.157822 116.595695,188.416458 116.182373,188.839691 
	C112.331894,188.611832 108.682571,188.123154 105.017052,187.860504 
	C102.551506,187.683838 100.063049,187.826859 97.174606,187.826859 
	C97.174606,185.943405 97.174606,184.249207 97.174606,182.368576 
	C103.408073,182.368576 109.464767,182.368576 115.554413,182.368576 
	C115.861206,184.208389 116.128723,185.812637 116.715027,187.658051 
z"/>
<path fill="#C1A708" opacity="1.000000" stroke="none" 
	d="
M209.622665,200.566269 
	C209.899612,202.425735 210.176559,204.285202 210.516968,206.570633 
	C203.787048,206.570633 197.751343,206.570633 191.446228,206.570633 
	C191.446228,204.801910 191.446228,203.247635 191.446228,201.032364 
	C197.395660,201.032364 203.142227,201.032364 209.280426,200.829132 
	C209.672058,200.625900 209.622665,200.566269 209.622665,200.566269 
z"/>
<path fill="#C1A708" opacity="1.000000" stroke="none" 
	d="
M59.622395,200.565521 
	C59.901272,202.434509 60.180145,204.303497 60.514797,206.546295 
	C53.793137,206.546295 47.757469,206.546295 41.449272,206.546295 
	C41.449272,204.805710 41.449272,203.250336 41.449272,201.032196 
	C47.392288,201.032196 53.140400,201.032196 59.280083,200.828613 
	C59.671646,200.625046 59.622395,200.565521 59.622395,200.565521 
z"/>
<path fill="#B708A0" opacity="1.000000" stroke="none" 
	d="
M161.190201,230.345642 
	C161.667206,228.702393 162.133926,227.490387 162.600662,226.278366 
	C163.157455,227.437286 164.135361,228.571915 164.203903,229.759018 
	C164.716064,238.631210 164.012329,239.601974 157.412735,240.253433 
	C156.121750,240.380875 154.851410,240.717407 153.571548,240.957504 
	C153.357483,240.524094 153.143402,240.090698 152.929337,239.657303 
	C154.080780,239.185745 155.195267,238.535507 156.393021,238.287933 
	C157.886398,237.979263 159.448395,238.002472 161.084976,236.815521 
	C159.167038,236.047134 157.249100,235.278732 155.175247,234.447876 
	C157.795456,232.845993 159.487686,231.811432 161.190201,230.345642 
z"/>
<path fill="#B708A0" opacity="1.000000" stroke="none" 
	d="
M218.359070,223.715973 
	C215.925873,224.460114 213.381195,224.890976 210.409302,225.394165 
	C210.409302,228.498016 210.409302,231.844330 210.409302,235.795319 
	C212.822586,235.795319 215.101318,235.795319 217.836609,235.872559 
	C217.283066,236.876358 216.376999,238.408966 215.241318,238.603928 
	C212.840073,239.016113 210.318848,238.729492 207.465332,238.729492 
	C207.465332,233.182205 207.465332,227.956604 207.465332,221.489532 
	C211.075195,222.130051 214.661407,222.766373 218.359070,223.715973 
z"/>
<path fill="#22252A" opacity="1.000000" stroke="none" 
	d="
M299.807373,253.373840 
	C298.717224,253.603653 297.364868,253.953918 296.927185,253.472534 
	C295.164825,251.534210 293.685181,249.338882 292.046936,247.166702 
	C294.072998,244.891724 296.218536,242.482559 298.450348,239.976547 
	C300.767914,242.495346 302.956329,244.873795 305.254547,247.371597 
	C303.498566,249.277481 301.732086,251.194748 299.807373,253.373840 
z"/>
<path fill="#B30710" opacity="1.000000" stroke="none" 
	d="
M155.497009,538.996094 
	C155.859741,538.774536 155.965866,539.124023 155.938736,539.813599 
	C155.931320,547.019165 155.951035,553.535034 155.970764,560.050964 
	C155.970764,560.050964 155.922180,559.998840 155.945953,559.972839 
	C151.871231,561.413818 150.184464,560.019043 150.367432,555.642639 
	C150.579514,550.570129 150.416840,545.482056 150.416840,540.321960 
	C152.318085,539.876953 153.726166,539.547302 155.497009,538.996094 
z"/>
<path fill="#22252A" opacity="1.000000" stroke="none" 
	d="
M91.003204,444.410828 
	C91.645592,443.978912 92.598312,443.584320 92.700340,443.741577 
	C94.384491,446.337708 95.961678,449.003296 97.744377,451.953796 
	C96.016708,453.954529 94.209198,456.047729 92.048897,458.549469 
	C89.702309,456.086914 87.619011,453.900665 85.444336,451.618500 
	C87.307877,449.264618 89.112785,446.984741 91.003204,444.410828 
z"/>
<path fill="#DABD09" opacity="1.000000" stroke="none" 
	d="
M196.983948,179.110336 
	C196.909622,177.505341 196.835297,175.900360 196.747162,173.997223 
	C203.157532,173.997223 209.175186,173.997223 215.473969,173.997223 
	C215.473969,175.624161 215.473969,177.028366 215.473969,179.178543 
	C209.577515,179.178543 203.704651,179.178543 197.374741,179.131348 
	C196.917694,179.084167 196.983948,179.110336 196.983948,179.110336 
z"/>
<path fill="#DABD09" opacity="1.000000" stroke="none" 
	d="
M46.712894,178.963165 
	C46.712894,177.479034 46.712894,175.994919 46.712894,174.106140 
	C52.981403,174.106140 59.007679,174.106140 65.396523,174.106140 
	C65.396523,175.582886 65.396523,177.106979 65.396523,179.213150 
	C59.477833,179.213150 53.720093,179.213150 47.477417,179.071167 
	C46.992489,178.929169 46.712894,178.963165 46.712894,178.963165 
z"/>
<path fill="#22252A" opacity="1.000000" stroke="none" 
	d="
M213.647842,411.329254 
	C218.127670,416.799683 211.656113,417.979218 210.430908,421.677490 
	C208.109482,418.928650 206.129150,416.583740 203.861145,413.898224 
	C205.924973,412.223083 208.179779,410.392944 211.106216,408.017670 
	C211.487457,408.523132 212.451599,409.801392 213.647842,411.329254 
z"/>
<path fill="#B708A0" opacity="1.000000" stroke="none" 
	d="
M244.588882,228.872253 
	C245.223633,229.198181 245.491974,229.443527 245.940979,229.893677 
	C246.069138,232.963837 246.016602,235.829178 245.964050,238.694519 
	C245.212341,238.709244 244.460632,238.723984 243.708923,238.738708 
	C243.384979,235.696182 243.061020,232.653656 242.715652,229.410065 
	C241.205399,229.410065 239.806808,229.410065 238.294662,229.410065 
	C237.954727,232.645157 237.634659,235.691086 237.314590,238.737030 
	C236.770187,238.718750 236.225784,238.700470 235.681381,238.682190 
	C235.681381,234.693146 235.681381,230.704086 235.681381,226.319611 
	C238.527649,226.564346 242.115829,224.565536 244.588882,228.872253 
z"/>
<path fill="#22252A" opacity="1.000000" stroke="none" 
	d="
M215.990051,703.021179 
	C217.650970,701.250427 219.311905,699.479736 221.272339,697.389709 
	C223.537064,700.184814 225.256042,704.203064 230.017868,702.635315 
	C227.054871,705.055664 224.091873,707.476074 220.829178,710.141235 
	C219.336472,708.102478 217.719360,705.893738 216.052277,703.343323 
	C216.002319,703.001587 215.990067,703.021179 215.990051,703.021179 
z"/>
<path fill="#22252A" opacity="1.000000" stroke="none" 
	d="
M222.698761,493.692047 
	C221.827713,495.070953 221.175735,496.198364 220.277847,497.750977 
	C218.414780,495.187408 216.638763,492.743652 214.780838,490.187195 
	C216.471893,487.817963 218.152557,485.463318 219.958374,482.933289 
	C221.977936,485.209564 223.999847,487.488525 226.176224,489.941589 
	C225.104614,491.092316 224.011215,492.266418 222.698761,493.692047 
z"/>
<path fill="#22252A" opacity="1.000000" stroke="none" 
	d="
M269.339783,405.452515 
	C271.131592,407.697632 272.798462,409.688812 274.489990,411.709473 
	C272.540161,413.868103 270.459381,416.171661 268.307892,418.553528 
	C267.967560,418.024475 267.641785,417.458313 267.259674,416.933136 
	C262.632202,410.572968 262.709412,409.808197 268.575226,404.492889 
	C268.601288,404.469299 268.851074,404.651642 268.959320,404.771271 
	C269.068573,404.891907 269.131531,405.054413 269.339783,405.452515 
z"/>
<path fill="#D5B809" opacity="1.000000" stroke="none" 
	d="
M235.924591,191.359406 
	C236.053589,190.900223 236.042526,190.863770 236.034363,190.891403 
	C237.534714,190.649567 239.043213,190.380081 240.969254,190.036026 
	C240.969254,195.820526 240.969254,201.004822 240.969254,206.502533 
	C239.379807,206.578003 237.967178,206.645081 235.795609,206.748199 
	C235.795609,201.584641 235.795609,196.701614 235.924591,191.359406 
z"/>
<path fill="#C6AC08" opacity="1.000000" stroke="none" 
	d="
M273.954407,202.115707 
	C272.500031,202.031830 271.045624,201.947952 268.956512,201.827454 
	C268.956512,199.776398 268.956512,197.855728 268.984375,195.095352 
	C268.958405,193.147842 268.904602,192.040054 268.850800,190.932266 
	C268.624146,187.737549 270.546326,187.342361 273.599976,187.841553 
	C274.147827,187.975708 274.445404,187.964951 274.543396,188.421707 
	C274.582367,192.933044 274.523346,196.987625 274.360901,201.211945 
	C274.132538,201.616486 274.031525,201.861160 273.954407,202.115707 
z"/>
<path fill="#DABD09" opacity="1.000000" stroke="none" 
	d="
M131.008163,201.293503 
	C134.696701,201.282120 138.385254,201.270737 142.502716,201.528793 
	C143.162689,202.171371 143.393753,202.544495 143.624802,202.917633 
	C144.059204,205.529541 143.397430,207.060699 140.302185,206.787140 
	C138.000351,206.583694 135.649567,206.571274 133.350357,206.788727 
	C130.139847,207.092361 129.778305,205.301834 130.270233,202.383163 
	C130.792343,201.814575 130.962997,201.605179 131.008163,201.293503 
z"/>
<path fill="#C6AC08" opacity="1.000000" stroke="none" 
	d="
M244.188980,194.055740 
	C244.378540,191.291992 242.025391,187.005493 248.566544,187.837250 
	C249.139343,187.972046 249.445663,187.965332 249.546326,188.421570 
	C249.586105,192.932678 249.525238,196.987534 249.360901,201.212067 
	C249.132492,201.616516 249.031479,201.861145 248.954391,202.115677 
	C247.543320,202.049194 246.132233,201.982727 244.285614,201.895721 
	C244.201599,200.486404 244.120682,199.128784 244.265686,197.131454 
	C244.390732,195.679733 244.289856,194.867737 244.188980,194.055740 
z"/>
<path fill="#B708A0" opacity="1.000000" stroke="none" 
	d="
M178.342468,230.707489 
	C177.237015,231.962982 176.377808,233.105850 175.114273,234.786560 
	C178.372482,235.504349 181.106079,236.106583 183.839676,236.708801 
	C183.738480,237.236496 183.637299,237.764175 183.536102,238.291870 
	C180.026794,238.291870 176.517487,238.291870 172.574844,238.291870 
	C172.498138,236.779190 172.418594,235.210373 172.373398,234.318954 
	C174.650131,233.007935 176.393188,232.031830 178.101837,230.998795 
	C178.477310,230.771820 178.730560,230.342667 179.040100,230.006622 
	C178.889648,230.202713 178.739197,230.398788 178.342468,230.707489 
z"/>
<path fill="#DABD09" opacity="1.000000" stroke="none" 
	d="
M131.160400,182.252823 
	C135.090652,182.252823 139.020889,182.252823 143.288147,182.252823 
	C143.480316,184.129776 143.642395,185.712784 143.948883,187.682587 
	C144.093292,188.069397 144.148560,188.019745 144.148560,188.019745 
	C140.080215,187.943893 136.011856,187.868027 131.382843,187.399780 
	C130.934906,185.422546 131.047653,183.837677 131.160400,182.252823 
z"/>
<path fill="#D00812" opacity="1.000000" stroke="none" 
	d="
M190.650162,534.804199 
	C191.018127,542.994812 191.007446,551.109253 190.974274,559.704224 
	C190.199081,560.233032 189.446365,560.281311 188.316528,559.771423 
	C187.950134,551.104919 187.960892,542.996521 187.971634,534.888184 
	C188.738266,534.834778 189.504883,534.781372 190.650162,534.804199 
z"/>
<path fill="#C1A708" opacity="1.000000" stroke="none" 
	d="
M273.947632,202.541687 
	C274.031525,201.861160 274.132538,201.616486 274.854248,201.271576 
	C278.988983,201.117493 282.527008,201.073517 286.031860,201.048981 
	C285.998718,201.068405 285.957886,201.003311 285.957886,201.003311 
	C285.853149,202.766220 285.748444,204.529129 285.612366,206.819626 
	C282.307800,206.819626 279.196655,207.117355 276.208130,206.642761 
	C275.281219,206.495560 274.687256,204.251633 273.947632,202.541687 
z"/>
<path fill="#C1A708" opacity="1.000000" stroke="none" 
	d="
M274.445404,187.964951 
	C274.445404,187.964951 274.147827,187.975708 273.999512,187.955231 
	C274.235229,186.210266 274.619202,184.485779 275.070831,182.457703 
	C278.373901,182.457703 281.722565,182.457703 285.530151,182.457703 
	C285.660431,184.019165 285.790741,185.580856 285.960083,187.537003 
	C285.999115,187.931473 286.065125,187.970169 285.593323,187.928452 
	C281.562805,187.912811 278.004089,187.938873 274.445404,187.964951 
z"/>
<path fill="#C1A708" opacity="1.000000" stroke="none" 
	d="
M249.445663,187.965332 
	C249.445663,187.965332 249.139343,187.972046 248.986969,187.949493 
	C249.226807,186.205368 249.619019,184.483780 250.080658,182.457443 
	C253.374390,182.457443 256.722992,182.457443 260.529968,182.457443 
	C260.660370,184.019547 260.790741,185.581223 260.959991,187.537262 
	C260.998871,187.931595 261.065125,187.970093 260.593323,187.929108 
	C256.562897,187.913849 253.004288,187.939590 249.445663,187.965332 
z"/>
<path fill="#C1A708" opacity="1.000000" stroke="none" 
	d="
M248.947632,202.541656 
	C249.031479,201.861145 249.132492,201.616516 249.854919,201.269806 
	C253.990005,201.115143 257.527588,201.072449 261.031982,201.049164 
	C260.998810,201.068573 260.958038,201.003387 260.958038,201.003387 
	C260.853027,202.766220 260.748016,204.529053 260.611572,206.819595 
	C257.307617,206.819595 254.196457,207.117325 251.207947,206.642746 
	C250.281082,206.495560 249.687210,204.251617 248.947632,202.541656 
z"/>
<path fill="#25D109" opacity="1.000000" stroke="none" 
	d="
M135.476868,465.568970 
	C135.005981,463.984772 134.987701,462.495758 134.956482,460.633545 
	C137.586563,460.192139 140.243774,460.271729 142.869141,460.019623 
	C146.434357,459.677277 147.227020,461.411163 146.415802,464.866180 
	C146.224472,465.271942 146.228134,465.255981 146.245956,465.243042 
	C142.819000,465.374756 139.374237,465.519440 135.476868,465.568970 
z"/>
<path fill="#22252A" opacity="1.000000" stroke="none" 
	d="
M177.789597,428.012939 
	C178.800171,426.709076 179.604736,425.675476 180.619598,424.371735 
	C181.152039,428.211029 187.981903,430.787811 182.220642,435.307617 
	C181.384506,435.963562 179.297577,436.214508 178.606201,435.650909 
	C176.175003,433.669006 175.363312,431.091705 177.789597,428.012939 
z"/>
<path fill="#DABD09" opacity="1.000000" stroke="none" 
	d="
M285.978760,187.963867 
	C287.555695,187.926361 289.153015,187.856445 291.016846,187.774857 
	C291.016846,192.277115 291.016846,196.348709 291.016846,200.945404 
	C289.647461,201.032913 288.255280,201.121872 286.410492,201.107071 
	C285.957886,201.003311 285.998718,201.068405 285.921692,200.594696 
	C285.918182,196.070709 285.991669,192.020432 286.065125,187.970169 
	C286.065125,187.970169 285.999115,187.931473 285.978760,187.963867 
z"/>
<path fill="#DABD09" opacity="1.000000" stroke="none" 
	d="
M260.978638,187.964142 
	C262.933472,188.157715 265.775146,186.036926 266.232117,190.865814 
	C266.248840,192.844116 266.330536,193.980820 266.412231,195.117523 
	C266.319489,196.918411 266.226776,198.719284 266.109283,201.001068 
	C264.658081,201.071274 263.249146,201.139435 261.399109,201.105499 
	C260.958038,201.003387 260.998810,201.068573 260.921143,200.595001 
	C260.917389,196.070984 260.991241,192.020538 261.065125,187.970093 
	C261.065125,187.970093 260.998871,187.931595 260.978638,187.964142 
z"/>
<path fill="#C1A708" opacity="1.000000" stroke="none" 
	d="
M59.699829,200.651474 
	C59.876842,197.749588 60.025665,194.821289 60.369339,191.356110 
	C60.795242,190.639618 60.936535,190.405777 60.988071,190.117691 
	C62.435429,190.185776 63.882786,190.253876 65.571571,190.333344 
	C65.571571,193.985138 65.571571,197.366547 65.571571,201.089584 
	C63.693218,201.089584 62.093815,201.089584 60.058403,200.827545 
	C59.622395,200.565521 59.671646,200.625046 59.699829,200.651474 
z"/>
<path fill="#22252A" opacity="1.000000" stroke="none" 
	d="
M385.789734,304.532837 
	C390.938049,309.774841 390.912415,310.116943 385.381317,314.278748 
	C379.173950,308.851013 379.181488,308.050720 385.789734,304.532837 
z"/>
<path fill="#22252A" opacity="1.000000" stroke="none" 
	d="
M234.957199,608.160156 
	C233.568649,606.573853 232.180099,604.987488 230.636505,603.224060 
	C232.308746,601.105042 233.903778,599.083862 235.811615,596.666321 
	C237.136124,598.313110 238.403885,599.889343 239.888443,602.069824 
	C240.132095,603.136475 240.158951,603.598938 240.185791,604.061401 
	C239.180832,605.156494 238.175858,606.251587 236.737213,607.686401 
	C235.854752,608.070801 235.405975,608.115479 234.957199,608.160156 
z"/>
<path fill="#C1A708" opacity="1.000000" stroke="none" 
	d="
M209.700348,200.652328 
	C209.892242,197.722122 210.055847,194.765472 210.428711,191.294464 
	C210.789200,190.661728 210.886566,190.509018 210.930084,190.321960 
	C212.378204,190.321960 213.826324,190.321960 215.562927,190.321960 
	C215.562927,193.955750 215.562927,197.343658 215.562927,201.089188 
	C213.700073,201.089188 212.097534,201.089188 210.058838,200.827728 
	C209.622665,200.566269 209.672058,200.625900 209.700348,200.652328 
z"/>
<path fill="#DABD09" opacity="1.000000" stroke="none" 
	d="
M47.032650,184.738739 
	C51.422085,185.138199 55.811520,185.537674 60.105011,186.718872 
	C59.669357,188.406601 59.329639,189.312607 58.989922,190.218613 
	C56.200432,190.213318 53.387863,189.980255 50.627232,190.259903 
	C47.110569,190.616119 46.349789,188.899094 46.878868,185.491516 
	C47.036457,185.034454 47.032650,184.738739 47.032650,184.738739 
z"/>
<path fill="#25D109" opacity="1.000000" stroke="none" 
	d="
M201.040497,454.119690 
	C200.961731,454.575836 201.002899,454.515656 200.557251,454.515228 
	C196.398849,454.493683 192.686081,454.472565 188.973328,454.451447 
	C188.973328,454.451447 188.951675,454.386292 188.977509,454.405396 
	C188.833389,453.159241 188.663452,451.894043 189.084427,450.279053 
	C193.427551,449.954285 197.179749,449.979340 200.931946,450.004395 
	C200.994385,451.224121 201.056808,452.443848 201.040497,454.119690 
z"/>
<path fill="#DABD09" opacity="1.000000" stroke="none" 
	d="
M208.992813,190.034546 
	C205.875351,190.089020 202.722473,190.427292 199.659500,190.045120 
	C198.577286,189.910080 197.714584,188.015717 197.029236,186.309296 
	C197.546738,185.422119 197.786697,185.150238 198.026642,184.878357 
	C201.163315,184.827225 204.335876,184.491928 207.416931,184.881119 
	C208.476425,185.014954 209.307404,186.957718 209.952972,188.665558 
	C209.439728,189.516205 209.216263,189.775375 208.992813,190.034546 
z"/>
<path fill="#DABD09" opacity="1.000000" stroke="none" 
	d="
M130.031982,189.001038 
	C130.035873,192.361588 130.039780,195.722153 129.842712,199.731293 
	C129.424301,200.663010 129.206863,200.946121 128.989426,201.229233 
	C125.481102,201.894104 124.228096,200.388336 124.592239,196.943283 
	C124.816231,194.824173 124.251923,192.557495 124.793251,190.560867 
	C125.105957,189.407440 126.912697,188.659042 128.658936,187.974243 
	C129.524567,188.480423 129.778275,188.740738 130.031982,189.001038 
z"/>
<path fill="#C1A708" opacity="1.000000" stroke="none" 
	d="
M79.481407,187.956070 
	C79.481407,187.956070 79.385201,187.946136 79.366127,187.930542 
	C79.650879,186.148926 79.954697,184.382935 80.297981,182.387543 
	C82.779503,182.387543 85.203865,182.387543 87.722389,182.387543 
	C88.024460,184.098022 88.307274,185.699432 88.691925,187.642639 
	C88.793762,187.984421 88.371017,187.953003 87.883896,187.885376 
	C84.758316,187.863861 82.119858,187.909958 79.481407,187.956070 
z"/>
<path fill="#0C010B" opacity="1.000000" stroke="none" 
	d="
M264.802185,236.199005 
	C262.120026,236.627899 259.237091,237.498962 258.984680,233.192795 
	C258.766327,229.466858 260.336121,227.943405 264.377441,228.118195 
	C264.849701,230.677032 264.860535,233.283920 264.802185,236.199005 
z"/>
<path fill="#22252A" opacity="1.000000" stroke="none" 
	d="
M223.043076,117.745453 
	C228.623932,121.793434 226.653442,126.298561 224.193665,130.835190 
	C223.707306,130.855133 223.220963,130.875076 222.734619,130.895020 
	C222.734619,126.508781 222.734619,122.122543 223.043076,117.745453 
z"/>
<path fill="#B19907" opacity="1.000000" stroke="none" 
	d="
M143.881836,202.663361 
	C143.393753,202.544495 143.162689,202.171371 142.960602,201.572876 
	C143.232758,199.735458 143.475952,198.123413 143.779251,196.112885 
	C145.389709,196.112885 147.064362,196.112885 148.984619,196.112885 
	C148.984619,197.803375 148.984619,199.392014 148.984619,201.027878 
	C147.366272,201.489151 145.752563,201.949112 143.881836,202.663361 
z"/>
<path fill="#6B045D" opacity="1.000000" stroke="none" 
	d="
M230.805328,231.910645 
	C230.929840,232.385696 230.944458,232.932281 231.198776,233.322800 
	C232.070419,234.661301 233.026123,235.945023 233.949768,237.249634 
	C233.115753,237.838669 232.169525,239.034134 231.468552,238.904388 
	C229.260162,238.495697 225.911209,240.924911 225.038696,235.867020 
	C226.938980,234.019363 228.872162,232.964996 230.805328,231.910645 
z"/>
<path fill="#B30710" opacity="1.000000" stroke="none" 
	d="
M187.627884,535.047241 
	C187.960892,542.996521 187.950134,551.104919 187.945297,559.694702 
	C187.559952,558.872925 186.825668,557.567261 186.834579,556.266785 
	C186.882782,549.245972 187.115219,542.226318 187.627884,535.047241 
z"/>
<path fill="#DABD09" opacity="1.000000" stroke="none" 
	d="
M88.371017,187.953003 
	C88.371017,187.953003 88.793762,187.984421 88.997742,187.926849 
	C92.172844,187.122787 93.405678,188.200058 93.107773,191.310532 
	C92.908195,193.394348 93.069824,195.512726 93.069824,198.098877 
	C91.541428,198.189484 90.173744,198.270569 88.370163,198.173126 
	C87.934280,197.994629 87.982758,198.072861 87.977127,197.592865 
	C88.104675,194.059586 88.237846,191.006302 88.371017,187.953003 
z"/>
<path fill="#22252A" opacity="1.000000" stroke="none" 
	d="
M235.859375,433.123505 
	C234.903564,434.529205 233.912109,435.569946 232.920624,436.610687 
	C232.078186,435.345642 230.748367,434.165131 230.510788,432.795166 
	C230.178406,430.878723 230.660339,428.821075 230.793869,426.823822 
	C231.257782,426.675446 231.721695,426.527039 232.185593,426.378662 
	C233.398315,428.505280 234.611023,430.631927 235.859375,433.123505 
z"/>
<path fill="#22252A" opacity="1.000000" stroke="none" 
	d="
M310.984009,431.170044 
	C309.591797,425.424713 310.840027,424.428589 317.243530,425.765656 
	C316.578888,429.964661 314.028320,432.343262 310.984009,431.170044 
z"/>
<path fill="#B708A0" opacity="1.000000" stroke="none" 
	d="
M230.902008,231.493942 
	C228.872162,232.964996 226.938980,234.019363 225.004730,235.442429 
	C224.156891,235.711182 223.310135,235.611221 222.261658,235.252228 
	C222.137711,233.372650 222.215469,231.752106 222.217804,229.732422 
	C225.131897,229.724686 228.813766,226.600067 230.902008,231.493942 
z"/>
<path fill="#B19907" opacity="1.000000" stroke="none" 
	d="
M197.725525,184.628265 
	C197.786697,185.150238 197.546738,185.422119 197.093063,185.862976 
	C195.132721,185.449066 193.386108,184.866165 191.362625,184.190857 
	C191.362625,182.842743 191.362625,181.294724 191.362625,179.355057 
	C193.033157,179.232712 194.593933,179.118423 196.569321,179.057220 
	C196.983948,179.110336 196.917694,179.084167 196.905457,179.051636 
	C197.070297,180.805450 197.247345,182.591812 197.725525,184.628265 
z"/>
<path fill="#776705" opacity="1.000000" stroke="none" 
	d="
M47.010918,179.068787 
	C47.065746,180.790604 47.102150,182.372787 47.085602,184.346863 
	C47.032650,184.738739 47.036457,185.034454 46.888611,185.037720 
	C44.987469,185.040970 43.234169,185.040970 41.221931,185.040970 
	C41.221931,182.921112 41.221931,181.350540 41.221931,179.214813 
	C42.780792,179.092422 44.335369,178.970352 46.301422,178.905731 
	C46.712894,178.963165 46.992489,178.929169 47.010918,179.068787 
z"/>
<path fill="#B19907" opacity="1.000000" stroke="none" 
	d="
M302.063049,201.114853 
	C303.782074,201.128311 305.533661,201.128311 307.578186,201.128311 
	C307.578186,203.118896 307.578186,204.660110 307.578186,206.610611 
	C305.947021,206.700363 304.404938,206.785233 302.410614,206.894974 
	C302.274506,204.995834 302.162201,203.428528 302.086121,201.448715 
	C302.122406,201.036209 302.095612,201.101395 302.063049,201.114853 
z"/>
<path fill="#22252A" opacity="1.000000" stroke="none" 
	d="
M386.864258,684.360596 
	C387.253326,687.139832 387.438324,689.657104 387.623322,692.174377 
	C387.082642,692.336853 386.541931,692.499329 386.001251,692.661743 
	C385.158600,690.336182 384.213440,688.035889 383.624542,685.647766 
	C383.562500,685.396179 385.597900,684.627441 386.864258,684.360596 
z"/>
<path fill="#22252A" opacity="1.000000" stroke="none" 
	d="
M218.800995,566.351562 
	C220.787262,565.869080 222.853210,565.750305 225.352264,565.648315 
	C224.667923,567.877136 223.550476,570.089111 221.886353,573.383240 
	C220.538467,570.393066 219.709564,568.554199 218.800995,566.351562 
z"/>
<path fill="#22252A" opacity="1.000000" stroke="none" 
	d="
M156.904053,156.151001 
	C158.210464,157.265320 159.277206,158.585327 160.343933,159.905334 
	C159.304565,160.384979 158.265198,160.864624 157.225830,161.344269 
	C157.038681,159.681732 156.851532,158.019211 156.904053,156.151001 
z"/>
<path fill="#22252A" opacity="1.000000" stroke="none" 
	d="
M372.760620,653.079102 
	C371.942535,654.346802 371.063416,655.272949 370.184326,656.199036 
	C369.518311,655.329956 368.433716,654.517395 368.306671,653.575623 
	C368.184998,652.673706 369.057983,651.637695 369.493896,650.660645 
	C370.562469,651.352905 371.631012,652.045227 372.760620,653.079102 
z"/>
<path fill="#22252A" opacity="1.000000" stroke="none" 
	d="
M174.818329,132.115387 
	C176.049652,131.845963 177.094711,131.850433 178.139771,131.854919 
	C178.111191,132.936798 178.384186,134.165924 177.952133,135.050812 
	C177.643921,135.682068 176.388306,135.850739 175.555450,136.225845 
	C175.247665,134.946991 174.939865,133.668137 174.818329,132.115387 
z"/>
<path fill="#D5B809" opacity="1.000000" stroke="none" 
	d="
M144.066650,188.095276 
	C145.469574,187.961563 146.899155,187.801987 148.795044,187.590347 
	C148.913422,189.508987 149.008316,191.047028 149.104767,192.610443 
	C145.162201,193.842316 142.923462,193.306183 143.940643,188.399567 
	C144.148560,188.019745 144.093292,188.069397 144.066650,188.095276 
z"/>
<path fill="#DABD09" opacity="1.000000" stroke="none" 
	d="
M101.001595,201.045456 
	C99.105705,201.201614 96.934738,202.161316 96.795174,198.749588 
	C96.645065,195.079926 99.128479,195.931702 101.606384,195.924347 
	C102.046204,195.981430 101.996452,195.913437 102.070786,196.331665 
	C102.101974,197.833939 102.058823,198.917984 101.821075,200.149887 
	C101.379066,200.514282 101.170769,200.763535 101.001595,201.045456 
z"/>
<path fill="#23C808" opacity="1.000000" stroke="none" 
	d="
M200.808960,449.662415 
	C197.179749,449.979340 193.427551,449.954285 189.196686,449.909546 
	C192.707352,449.700012 196.696671,449.510223 200.808960,449.662415 
z"/>
<path fill="#25D109" opacity="1.000000" stroke="none" 
	d="
M235.148712,478.358276 
	C235.440170,477.779083 235.623505,477.601074 235.876923,477.228088 
	C236.735352,477.004333 237.494263,476.945160 238.772964,477.141205 
	C239.500687,477.625885 239.733200,477.826874 239.990311,477.999451 
	C239.338638,479.460938 238.994888,481.867401 237.975266,482.199646 
	C235.339096,483.058624 234.841492,480.991821 235.148712,478.358276 
z"/>
<path fill="#0C010B" opacity="1.000000" stroke="none" 
	d="
M234.914337,608.493530 
	C235.405975,608.115479 235.854752,608.070801 236.639679,607.997681 
	C236.790787,608.943359 236.928360,610.221252 236.355209,610.830078 
	C235.062195,612.203552 233.417694,613.246155 231.916199,614.423401 
	C231.963516,613.368347 231.758545,612.204529 232.149704,611.297791 
	C232.397018,610.724487 233.596497,610.619507 234.246277,610.138672 
	C234.590042,609.884338 234.671570,609.275635 234.914337,608.493530 
z"/>
<path fill="#383108" opacity="1.000000" stroke="none" 
	d="
M181.041382,562.709717 
	C179.298523,562.339600 177.727127,561.777283 176.051544,560.850952 
	C175.947357,560.487000 175.898499,560.526184 175.898499,560.526184 
	C177.482483,560.426941 179.066483,560.327637 180.986664,560.175842 
	C181.286194,560.921387 181.249527,561.719482 181.041382,562.709717 
z"/>
<path fill="#B19907" opacity="1.000000" stroke="none" 
	d="
M304.429077,187.173630 
	C303.490875,185.347458 302.862122,183.404938 302.178589,181.078827 
	C304.734131,182.101349 306.102112,184.018005 304.429077,187.173630 
z"/>
<path fill="#776705" opacity="1.000000" stroke="none" 
	d="
M130.216232,188.816666 
	C129.778275,188.740738 129.524567,188.480423 129.118057,187.994293 
	C129.463196,185.907730 129.961121,184.046997 130.809723,182.219543 
	C131.047653,183.837677 130.934906,185.422546 130.918854,187.401642 
	C130.810516,188.074692 130.605499,188.353500 130.216232,188.816666 
z"/>
<path fill="#383108" opacity="1.000000" stroke="none" 
	d="
M266.716125,195.098938 
	C266.330536,193.980820 266.248840,192.844116 266.289856,191.293732 
	C267.021790,190.913223 267.631012,190.946411 268.545502,190.955933 
	C268.904602,192.040054 268.958405,193.147842 268.924683,194.664398 
	C268.231415,195.075562 267.625702,195.077957 266.716125,195.098938 
z"/>
<path fill="#C1A708" opacity="1.000000" stroke="none" 
	d="
M69.082832,201.280350 
	C69.271568,201.866959 69.371254,202.683456 69.321198,203.718994 
	C69.112228,203.128769 69.053001,202.319489 69.082832,201.280350 
z"/>
<path fill="#0C010B" opacity="1.000000" stroke="none" 
	d="
M240.456451,604.019897 
	C240.158951,603.598938 240.132095,603.136475 240.103485,602.326782 
	C240.751022,602.296204 241.400345,602.612854 242.049652,602.929443 
	C241.608795,603.279114 241.167953,603.628784 240.456451,604.019897 
z"/>
<path fill="#776705" opacity="1.000000" stroke="none" 
	d="
M59.152653,190.396393 
	C59.329639,189.312607 59.669357,188.406601 60.153259,187.161255 
	C60.489536,187.695145 60.681618,188.568359 60.930885,189.779633 
	C60.936535,190.405777 60.795242,190.639618 60.372375,190.901367 
	C59.858814,190.917542 59.570423,190.781097 59.152653,190.396393 
z"/>
<path fill="#C1A708" opacity="1.000000" stroke="none" 
	d="
M244.092743,194.282074 
	C244.289856,194.867737 244.390732,195.679733 244.344833,196.710571 
	C244.130875,196.122421 244.063690,195.315399 244.092743,194.282074 
z"/>
<path fill="#776705" opacity="1.000000" stroke="none" 
	d="
M129.120941,201.419647 
	C129.206863,200.946121 129.424301,200.663010 129.830963,200.189117 
	C130.255096,200.275116 130.489990,200.551910 130.866516,201.061096 
	C130.962997,201.605179 130.792343,201.814575 130.288040,201.959335 
	C129.761459,201.959137 129.485657,201.830170 129.120941,201.419647 
z"/>
<path fill="#383108" opacity="1.000000" stroke="none" 
	d="
M155.256241,564.429810 
	C155.499466,564.466064 155.737076,564.793579 155.707916,564.892700 
	C155.191299,564.918335 154.703857,564.844849 154.216400,564.771362 
	C154.481934,564.645447 154.747482,564.519470 155.256241,564.429810 
z"/>
<path fill="#22252A" opacity="1.000000" stroke="none" 
	d="
M298.290894,236.245728 
	C298.069824,236.142197 297.951569,235.944031 297.833313,235.745850 
	C298.020111,235.880936 298.206879,236.016022 298.290894,236.245728 
z"/>
<path fill="#B19907" opacity="1.000000" stroke="none" 
	d="
M209.226257,190.178864 
	C209.216263,189.775375 209.439728,189.516205 209.878906,189.116333 
	C210.288010,189.270035 210.481384,189.564453 210.802429,190.090424 
	C210.886566,190.509018 210.789200,190.661728 210.514664,190.841919 
	C210.080811,190.710220 209.770248,190.516708 209.226257,190.178864 
z"/>
<path fill="#22252A" opacity="1.000000" stroke="none" 
	d="
M225.894867,565.781616 
	C225.683685,565.403931 225.719894,564.975342 225.862518,564.238647 
	C226.026718,564.530579 226.084503,565.130615 225.894867,565.781616 
z"/>
<path fill="#22252A" opacity="1.000000" stroke="none" 
	d="
M180.474686,440.028442 
	C180.455063,440.004974 180.494308,440.051941 180.474686,440.028442 
z"/>
<path fill="#C6AC08" opacity="1.000000" stroke="none" 
	d="
M101.271965,201.110962 
	C101.170769,200.763535 101.379066,200.514282 101.888733,200.414169 
	C102.081192,200.698563 102.011398,200.866501 101.941605,201.034454 
	C101.941605,201.034454 101.988464,200.973846 102.009491,200.941711 
	C101.867783,200.998550 101.705063,201.087524 101.271965,201.110962 
z"/>
<path fill="#B19907" opacity="1.000000" stroke="none" 
	d="
M301.824585,176.806274 
	C301.653625,176.993134 301.422363,176.959381 300.861450,176.804123 
	C300.942627,176.650284 301.353424,176.617966 301.824585,176.806274 
z"/>
<path fill="#22C108" opacity="1.000000" stroke="none" 
	d="
M239.968964,477.724731 
	C239.733200,477.826874 239.500687,477.625885 239.148392,477.216156 
	C239.318558,477.173920 239.633087,477.311951 239.968964,477.724731 
z"/>
<path fill="#22252A" opacity="1.000000" stroke="none" 
	d="
M216.012085,702.995178 
	C216.021851,702.988770 215.935715,702.948059 215.962891,702.984619 
	C215.990067,703.021179 216.002319,703.001587 216.012085,702.995178 
z"/>
<path fill="#010101" opacity="1.000000" stroke="none" 
	d="
M224.959198,454.658691 
	C227.761566,455.370087 231.980164,452.782257 232.063324,457.207825 
	C232.159241,462.311859 227.628860,459.342072 225.216232,459.902283 
	C223.181122,460.374847 220.871887,460.341705 218.829590,459.883484 
	C217.339767,459.549286 216.086716,458.159668 214.728088,457.240601 
	C216.161362,456.381714 217.501572,455.156494 219.052948,454.762299 
	C220.758224,454.328949 222.657898,454.660522 224.959198,454.658691 
z"/>
<path fill="#080702" opacity="1.000000" stroke="none" 
	d="
M188.840622,454.919006 
	C192.686081,454.472565 196.398849,454.493683 200.574036,454.482849 
	C201.036453,456.068848 201.036453,457.686859 201.036453,459.178497 
	C191.778076,461.482361 188.880432,460.528900 188.840622,454.919006 
z"/>
<path fill="#080702" opacity="1.000000" stroke="none" 
	d="
M87.883888,187.885376 
	C88.237846,191.006302 88.104675,194.059586 88.016785,197.569519 
	C83.803139,198.026169 79.544197,198.026169 74.875328,198.026169 
	C74.797050,196.628510 74.718903,195.233246 74.621025,193.485626 
	C76.456299,193.228806 77.997643,193.013123 79.875496,192.750336 
	C79.875496,191.291656 79.875496,190.009232 79.678452,188.341446 
	C82.119858,187.909958 84.758316,187.863861 87.883888,187.885376 
z"/>
<path fill="#080702" opacity="1.000000" stroke="none" 
	d="
M102.408363,201.086746 
	C102.011398,200.866501 102.081192,200.698563 102.083328,200.266327 
	C102.058823,198.917984 102.101974,197.833939 102.036011,196.355438 
	C106.333633,195.960983 110.740364,195.960983 115.478226,195.960983 
	C115.588303,197.679291 115.676926,199.062714 115.809937,201.139038 
	C111.278473,201.139038 107.076797,201.139038 102.408363,201.086746 
z"/>
<path fill="#010101" opacity="1.000000" stroke="none" 
	d="
M175.988174,560.019775 
	C175.898499,560.526184 175.947357,560.487000 175.956467,560.459717 
	C173.238327,559.559265 170.511078,558.686035 167.120224,557.922852 
	C166.333847,558.354675 166.211060,558.676270 166.088257,558.997925 
	C163.011688,559.403381 159.935104,559.808777 156.414642,560.132568 
	C155.951035,553.535034 155.931320,547.019165 155.937134,539.996216 
	C162.417770,539.489258 168.872879,539.489258 176.077850,539.489258 
	C176.077850,546.679321 176.077850,553.096375 175.988174,560.019775 
z"/>
<path fill="#0C010B" opacity="1.000000" stroke="none" 
	d="
M195.877975,235.915100 
	C193.474075,235.774719 191.032593,235.653809 188.217209,235.514404 
	C188.073090,233.728287 187.893326,232.136734 187.830170,230.540543 
	C187.765747,228.912079 187.815918,227.279099 187.815918,225.269409 
	C190.495087,225.269409 192.853775,225.269409 195.823044,225.269409 
	C195.823044,228.584305 195.823044,231.838623 195.811646,235.551025 
	C195.800262,236.009109 195.840393,235.934570 195.877975,235.915100 
z"/>
<path fill="#B30710" opacity="1.000000" stroke="none" 
	d="
M166.260681,558.843201 
	C166.211060,558.676270 166.333847,558.354675 166.728790,557.995850 
	C166.842545,558.226013 166.653244,558.469238 166.260681,558.843201 
z"/>
<path fill="#080702" opacity="1.000000" stroke="none" 
	d="
M285.593323,187.928452 
	C285.991669,192.020432 285.918182,196.070709 285.954834,200.575256 
	C282.527008,201.073517 278.988983,201.117493 274.957642,201.101837 
	C274.523346,196.987625 274.582367,192.933044 274.543396,188.421707 
	C278.004089,187.938873 281.562805,187.912811 285.593323,187.928452 
z"/>
<path fill="#080702" opacity="1.000000" stroke="none" 
	d="
M260.593323,187.929108 
	C260.991241,192.020538 260.917389,196.070984 260.954346,200.575592 
	C257.527588,201.072449 253.990005,201.115143 249.958374,201.100128 
	C249.525238,196.987534 249.586105,192.932678 249.546326,188.421570 
	C253.004288,187.939590 256.562897,187.913849 260.593323,187.929108 
z"/>
</svg>